<svg width="546" height="356" viewBox="0 0 546 356" fill="none" xmlns="http://www.w3.org/2000/svg">
<path d="M522.914 0H23.0857C10.3358 0 0 10.3358 0 23.0857V332.914C0 345.664 10.3358 356 23.0857 356H522.914C535.664 356 546 345.664 546 332.914V23.0857C546 10.3358 535.664 0 522.914 0Z" fill="url(#paint0_linear_339_7)"/>
<path d="M41.5986 128.529C41.5986 128.529 92.8371 166.816 155.297 166.816C217.757 166.816 229.152 122.869 260.79 122.869C292.427 122.869 329.355 153.839 403.951 153.839C478.547 153.839 510.926 79.3171 510.926 79.3171V250.977H41.5986V128.529Z" fill="url(#paint1_linear_339_7)"/>
<path d="M41.5986 195.932C41.5986 195.932 82.2829 139.083 131.445 139.083C180.607 139.083 210.095 182.659 256.909 182.659C303.723 182.659 332.716 100.846 391.494 100.846C450.271 100.846 511.001 185.996 511.001 185.996V250.928H41.5986V195.932Z" fill="url(#paint2_linear_339_7)"/>
<path d="M29.6606 144.199C29.6459 144.838 29.4423 145.459 29.0755 145.982C28.7087 146.506 28.1951 146.909 27.5995 147.141C27.0038 147.374 26.3528 147.424 25.7284 147.287C25.104 147.15 24.5342 146.831 24.0908 146.37C23.6474 145.91 23.3503 145.328 23.2369 144.699C23.1235 144.07 23.1989 143.421 23.4535 142.835C23.7082 142.248 24.1307 141.751 24.6679 141.404C25.2051 141.057 25.8328 140.877 26.4721 140.887C26.8994 140.893 27.3213 140.984 27.7133 141.155C28.1053 141.325 28.4597 141.571 28.7562 141.879C29.0526 142.187 29.2851 142.55 29.4403 142.949C29.5955 143.347 29.6704 143.772 29.6606 144.199V144.199Z" fill="#3A3D4C"/>
<path d="M29.6604 175.788C29.6604 176.428 29.4705 177.054 29.1148 177.587C28.759 178.119 28.2533 178.534 27.6616 178.779C27.07 179.025 26.4189 179.089 25.7908 178.964C25.1627 178.839 24.5858 178.53 24.1329 178.078C23.6801 177.625 23.3717 177.048 23.2468 176.42C23.1219 175.792 23.186 175.141 23.431 174.549C23.6761 173.957 24.0911 173.452 24.6236 173.096C25.1561 172.74 25.7821 172.55 26.4225 172.55C27.2813 172.55 28.1048 172.891 28.7121 173.498C29.3193 174.106 29.6604 174.929 29.6604 175.788V175.788Z" fill="#3A3D4C"/>
<path d="M29.6604 207.401C29.6555 208.041 29.4614 208.664 29.1027 209.193C28.7439 209.723 28.2366 210.134 27.6445 210.375C27.0524 210.616 26.4022 210.677 25.7757 210.549C25.1492 210.422 24.5746 210.111 24.1243 209.657C23.6739 209.204 23.3679 208.627 23.245 207.999C23.1221 207.372 23.1876 206.722 23.4334 206.132C23.6792 205.542 24.0942 205.037 24.6261 204.683C25.158 204.328 25.7831 204.139 26.4224 204.139C26.8497 204.139 27.2728 204.223 27.6673 204.387C28.0617 204.552 28.4198 204.792 28.7208 205.096C29.0218 205.399 29.2597 205.759 29.421 206.155C29.5823 206.55 29.6636 206.974 29.6604 207.401V207.401Z" fill="#3A3D4C"/>
<path d="M29.6604 238.989C29.6604 239.629 29.4705 240.255 29.1148 240.788C28.759 241.32 28.2533 241.735 27.6616 241.98C27.07 242.225 26.4189 242.29 25.7908 242.165C25.1627 242.04 24.5858 241.731 24.1329 241.278C23.6801 240.826 23.3717 240.249 23.2468 239.621C23.1219 238.993 23.186 238.341 23.431 237.75C23.6761 237.158 24.0911 236.652 24.6236 236.297C25.1561 235.941 25.7821 235.751 26.4225 235.751C27.2813 235.751 28.1048 236.092 28.7121 236.699C29.3193 237.307 29.6604 238.13 29.6604 238.989V238.989Z" fill="#3A3D4C"/>
<path d="M42.736 263.237C44.5242 263.237 45.9739 261.787 45.9739 259.999C45.9739 258.21 44.5242 256.761 42.736 256.761C40.9477 256.761 39.498 258.21 39.498 259.999C39.498 261.787 40.9477 263.237 42.736 263.237Z" fill="#3A3D4C"/>
<path d="M88.264 259.999C88.264 260.639 88.0741 261.265 87.7183 261.798C87.3625 262.33 86.8568 262.745 86.2651 262.99C85.6735 263.235 85.0224 263.299 84.3943 263.174C83.7662 263.049 83.1893 262.741 82.7365 262.288C82.2836 261.835 81.9752 261.258 81.8503 260.63C81.7254 260.002 81.7895 259.351 82.0346 258.76C82.2796 258.168 82.6947 257.662 83.2271 257.306C83.7596 256.951 84.3856 256.761 85.026 256.761C85.8828 256.767 86.7026 257.11 87.3084 257.716C87.9143 258.322 88.2575 259.142 88.264 259.999V259.999Z" fill="#3A3D4C"/>
<path d="M130.531 259.999C130.531 260.639 130.341 261.265 129.985 261.798C129.629 262.33 129.123 262.745 128.532 262.99C127.94 263.235 127.289 263.299 126.661 263.174C126.033 263.049 125.456 262.741 125.003 262.288C124.55 261.835 124.242 261.258 124.117 260.63C123.992 260.002 124.056 259.351 124.301 258.76C124.546 258.168 124.961 257.662 125.494 257.306C126.026 256.951 126.652 256.761 127.293 256.761C128.151 256.761 128.975 257.102 129.582 257.709C130.189 258.316 130.531 259.14 130.531 259.999V259.999Z" fill="#3A3D4C"/>
<path d="M172.822 259.999C172.827 260.645 172.64 261.278 172.284 261.818C171.929 262.358 171.421 262.78 170.825 263.031C170.229 263.281 169.573 263.349 168.938 263.226C168.304 263.103 167.72 262.794 167.261 262.339C166.803 261.884 166.489 261.303 166.361 260.669C166.233 260.036 166.297 259.378 166.543 258.781C166.789 258.183 167.207 257.672 167.744 257.312C168.281 256.953 168.913 256.761 169.559 256.761C170.42 256.761 171.247 257.101 171.858 257.708C172.469 258.314 172.816 259.138 172.822 259.999V259.999Z" fill="#3A3D4C"/>
<path d="M215.038 259.999C215.038 260.639 214.848 261.265 214.493 261.798C214.137 262.33 213.631 262.745 213.04 262.99C212.448 263.235 211.797 263.299 211.169 263.174C210.541 263.049 209.964 262.741 209.511 262.288C209.058 261.835 208.75 261.258 208.625 260.63C208.5 260.002 208.564 259.351 208.809 258.76C209.054 258.168 209.469 257.662 210.002 257.306C210.534 256.951 211.16 256.761 211.8 256.761C212.657 256.767 213.477 257.11 214.083 257.716C214.689 258.322 215.032 259.142 215.038 259.999V259.999Z" fill="#3A3D4C"/>
<path d="M257.354 259.999C257.354 260.639 257.164 261.265 256.809 261.798C256.453 262.33 255.947 262.745 255.355 262.99C254.764 263.235 254.113 263.299 253.485 263.174C252.857 263.049 252.28 262.741 251.827 262.288C251.374 261.835 251.066 261.258 250.941 260.63C250.816 260.002 250.88 259.351 251.125 258.76C251.37 258.168 251.785 257.662 252.317 257.306C252.85 256.951 253.476 256.761 254.116 256.761C254.975 256.761 255.799 257.102 256.406 257.709C257.013 258.316 257.354 259.14 257.354 259.999V259.999Z" fill="#3A3D4C"/>
<path d="M299.644 259.999C299.649 260.645 299.462 261.278 299.107 261.818C298.751 262.358 298.243 262.78 297.647 263.031C297.052 263.281 296.395 263.349 295.76 263.226C295.126 263.103 294.542 262.794 294.084 262.339C293.625 261.884 293.312 261.303 293.184 260.669C293.056 260.036 293.119 259.378 293.365 258.781C293.611 258.183 294.029 257.672 294.567 257.312C295.104 256.953 295.735 256.761 296.382 256.761C297.243 256.761 298.069 257.101 298.68 257.708C299.291 258.314 299.638 259.138 299.644 259.999V259.999Z" fill="#3A3D4C"/>
<path d="M341.911 259.999C341.911 260.639 341.721 261.265 341.365 261.798C341.009 262.33 340.504 262.745 339.912 262.99C339.32 263.235 338.669 263.299 338.041 263.174C337.413 263.049 336.836 262.741 336.383 262.288C335.931 261.835 335.622 261.258 335.497 260.63C335.372 260.002 335.436 259.351 335.682 258.76C335.927 258.168 336.342 257.662 336.874 257.306C337.407 256.951 338.033 256.761 338.673 256.761C339.53 256.767 340.35 257.11 340.955 257.716C341.561 258.322 341.904 259.142 341.911 259.999V259.999Z" fill="#3A3D4C"/>
<path d="M380.94 263.237C382.728 263.237 384.178 261.787 384.178 259.999C384.178 258.21 382.728 256.761 380.94 256.761C379.151 256.761 377.702 258.21 377.702 259.999C377.702 261.787 379.151 263.237 380.94 263.237Z" fill="#3A3D4C"/>
<path d="M423.23 263.237C425.018 263.237 426.468 261.787 426.468 259.999C426.468 258.21 425.018 256.761 423.23 256.761C421.442 256.761 419.992 258.21 419.992 259.999C419.992 261.787 421.442 263.237 423.23 263.237Z" fill="#3A3D4C"/>
<path d="M468.735 259.999C468.735 260.639 468.545 261.265 468.189 261.798C467.833 262.33 467.327 262.745 466.736 262.99C466.144 263.235 465.493 263.299 464.865 263.174C464.237 263.049 463.66 262.741 463.207 262.288C462.754 261.835 462.446 261.258 462.321 260.63C462.196 260.002 462.26 259.351 462.505 258.76C462.75 258.168 463.165 257.662 463.698 257.306C464.23 256.951 464.856 256.761 465.497 256.761C466.353 256.767 467.173 257.11 467.779 257.716C468.385 258.322 468.728 259.142 468.735 259.999Z" fill="#3A3D4C"/>
<path d="M507.763 263.237C509.552 263.237 511.001 261.787 511.001 259.999C511.001 258.21 509.552 256.761 507.763 256.761C505.975 256.761 504.525 258.21 504.525 259.999C504.525 261.787 505.975 263.237 507.763 263.237Z" fill="#3A3D4C"/>
<path d="M41.5986 206.462C41.5986 206.462 74.0027 184.538 114.316 184.538C154.63 184.538 200.579 220.427 233.354 220.427C266.129 220.427 281.503 187.652 321.52 187.652C361.536 187.652 382.15 213.555 423.23 213.555C464.31 213.555 476.718 155.718 511.001 155.718V250.928H41.5986V206.462Z" fill="url(#paint3_linear_339_7)"/>
<path d="M58.528 38.1853C58.3083 37.4959 58.0129 36.8784 57.6416 36.333C57.278 35.78 56.8424 35.3103 56.3348 34.9239C55.8273 34.53 55.2477 34.2307 54.5962 34.0262C53.9523 33.8216 53.2439 33.7193 52.4712 33.7193C51.1606 33.7193 49.9788 34.0565 48.9257 34.7307C47.8727 35.405 47.0394 36.3936 46.4257 37.6966C45.8197 38.9921 45.5166 40.5792 45.5166 42.458C45.5166 44.3443 45.8235 45.939 46.4371 47.2421C47.0507 48.5451 47.8916 49.5337 48.9598 50.208C50.028 50.8822 51.2439 51.2193 52.6076 51.2193C53.8727 51.2193 54.975 50.9618 55.9144 50.4466C56.8613 49.9315 57.5924 49.2042 58.1076 48.2648C58.6303 47.3178 58.8916 46.2042 58.8916 44.9239L59.8007 45.0943H53.1416V42.1966H62.2894V44.8443C62.2894 46.7989 61.8727 48.4959 61.0394 49.9353C60.2136 51.3671 59.0697 52.4731 57.6076 53.2534C56.153 54.0337 54.4863 54.4239 52.6076 54.4239C50.5015 54.4239 48.653 53.939 47.0621 52.9693C45.4788 51.9997 44.2439 50.6247 43.3576 48.8443C42.4712 47.0565 42.028 44.9353 42.028 42.4807C42.028 40.6247 42.2856 38.958 42.8007 37.4807C43.3159 36.0034 44.0394 34.7497 44.9712 33.7193C45.9106 32.6815 47.0129 31.8898 48.278 31.3443C49.5507 30.7913 50.9409 30.5148 52.4485 30.5148C53.706 30.5148 54.8765 30.7004 55.9598 31.0716C57.0507 31.4428 58.0204 31.9693 58.8689 32.6512C59.725 33.333 60.4333 34.1436 60.9939 35.083C61.5545 36.0148 61.9333 37.0489 62.1303 38.1853H58.528ZM71.5536 54.4921C70.4475 54.4921 69.4475 54.2875 68.5536 53.8784C67.6596 53.4618 66.9513 52.8595 66.4286 52.0716C65.9134 51.2837 65.6559 50.3178 65.6559 49.1739C65.6559 48.189 65.8452 47.3784 66.224 46.7421C66.6028 46.1057 67.1142 45.6019 67.7581 45.2307C68.4021 44.8595 69.1218 44.5792 69.9172 44.3898C70.7127 44.2004 71.5233 44.0565 72.349 43.958C73.3945 43.8368 74.243 43.7383 74.8945 43.6625C75.546 43.5792 76.0195 43.4466 76.3149 43.2648C76.6104 43.083 76.7581 42.7875 76.7581 42.3784V42.2989C76.7581 41.3065 76.4778 40.5375 75.9172 39.9921C75.3642 39.4466 74.5384 39.1739 73.4399 39.1739C72.296 39.1739 71.3945 39.4277 70.7354 39.9353C70.0839 40.4353 69.6331 40.9921 69.3831 41.6057L66.1899 40.8784C66.5687 39.8178 67.1218 38.9618 67.849 38.3103C68.5839 37.6512 69.4286 37.1739 70.3831 36.8784C71.3377 36.5754 72.3415 36.4239 73.3945 36.4239C74.0915 36.4239 74.8301 36.5072 75.6104 36.6739C76.3983 36.833 77.1331 37.1284 77.8149 37.5603C78.5043 37.9921 79.0687 38.6095 79.5081 39.4125C79.9475 40.208 80.1672 41.2421 80.1672 42.5148V54.1057H76.849V51.7193H76.7127C76.493 52.1587 76.1634 52.5906 75.724 53.0148C75.2846 53.439 74.7202 53.7913 74.0309 54.0716C73.3415 54.3519 72.5157 54.4921 71.5536 54.4921ZM72.2922 51.7648C73.2316 51.7648 74.0346 51.5792 74.7013 51.208C75.3755 50.8368 75.8869 50.3519 76.2354 49.7534C76.5915 49.1474 76.7695 48.4997 76.7695 47.8103V45.5603C76.6483 45.6815 76.4134 45.7951 76.0649 45.9012C75.724 45.9997 75.3339 46.0868 74.8945 46.1625C74.4551 46.2307 74.0271 46.2951 73.6104 46.3557C73.1937 46.4087 72.8452 46.4542 72.5649 46.4921C71.9059 46.5754 71.3036 46.7156 70.7581 46.9125C70.2202 47.1095 69.7884 47.3936 69.4627 47.7648C69.1445 48.1284 68.9854 48.6133 68.9854 49.2193C68.9854 50.0603 69.296 50.6966 69.9172 51.1284C70.5384 51.5527 71.3301 51.7648 72.2922 51.7648ZM84.6928 54.1057V36.6512H88.0905V54.1057H84.6928ZM86.4087 33.958C85.8178 33.958 85.3102 33.761 84.886 33.3671C84.4693 32.9656 84.261 32.4883 84.261 31.9353C84.261 31.3747 84.4693 30.8974 84.886 30.5034C85.3102 30.1019 85.8178 29.9012 86.4087 29.9012C86.9996 29.9012 87.5034 30.1019 87.9201 30.5034C88.3443 30.8974 88.5564 31.3747 88.5564 31.9353C88.5564 32.4883 88.3443 32.9656 87.9201 33.3671C87.5034 33.761 86.9996 33.958 86.4087 33.958ZM96.0593 43.7421V54.1057H92.6615V36.6512H95.9229V39.4921H96.1388C96.5403 38.5678 97.1691 37.8254 98.0252 37.2648C98.8888 36.7042 99.9759 36.4239 101.287 36.4239C102.476 36.4239 103.518 36.6739 104.412 37.1739C105.305 37.6663 105.999 38.4012 106.491 39.3784C106.984 40.3557 107.23 41.564 107.23 43.0034V54.1057H103.832V43.4125C103.832 42.1474 103.502 41.1587 102.843 40.4466C102.184 39.7269 101.279 39.3671 100.127 39.3671C99.3396 39.3671 98.6388 39.5375 98.0252 39.8784C97.4191 40.2193 96.938 40.7193 96.582 41.3784C96.2335 42.03 96.0593 42.8178 96.0593 43.7421ZM46.2894 69.833V93.1057H42.778V69.833H46.2894ZM54.528 82.7421V93.1057H51.1303V75.6512H54.3916V78.4921H54.6076C55.0091 77.5678 55.6379 76.8254 56.4939 76.2648C57.3576 75.7042 58.4447 75.4239 59.7553 75.4239C60.9447 75.4239 61.9863 75.6739 62.8803 76.1739C63.7742 76.6663 64.4674 77.4012 64.9598 78.3784C65.4523 79.3557 65.6985 80.564 65.6985 82.0034V93.1057H62.3007V82.4125C62.3007 81.1474 61.9712 80.1587 61.3121 79.4466C60.653 78.7269 59.7477 78.3671 58.5962 78.3671C57.8083 78.3671 57.1076 78.5375 56.4939 78.8784C55.8879 79.2193 55.4068 79.7193 55.0507 80.3784C54.7023 81.03 54.528 81.8178 54.528 82.7421ZM83.3348 79.9125L80.2553 80.458C80.1265 80.064 79.9219 79.689 79.6416 79.333C79.3689 78.9769 78.9977 78.6853 78.528 78.458C78.0583 78.2307 77.4712 78.1171 76.7666 78.1171C75.8045 78.1171 75.0015 78.333 74.3576 78.7648C73.7136 79.189 73.3916 79.7383 73.3916 80.4125C73.3916 80.9959 73.6076 81.4656 74.0394 81.8216C74.4712 82.1777 75.1682 82.4693 76.1303 82.6966L78.903 83.333C80.5091 83.7042 81.706 84.2762 82.4939 85.0489C83.2818 85.8216 83.6757 86.8254 83.6757 88.0603C83.6757 89.1057 83.3727 90.0375 82.7666 90.8557C82.1682 91.6663 81.331 92.3027 80.2553 92.7648C79.1871 93.2269 77.9485 93.458 76.5394 93.458C74.5848 93.458 72.9901 93.0413 71.7553 92.208C70.5204 91.3671 69.7629 90.1739 69.4826 88.6284L72.7666 88.1284C72.9712 88.9845 73.3916 89.6322 74.028 90.0716C74.6644 90.5034 75.4939 90.7193 76.5166 90.7193C77.6303 90.7193 78.5204 90.4883 79.1871 90.0262C79.8538 89.5565 80.1871 88.9845 80.1871 88.3103C80.1871 87.7648 79.9826 87.3065 79.5735 86.9353C79.1719 86.564 78.5545 86.2837 77.7212 86.0943L74.7666 85.4466C73.1379 85.0754 71.9333 84.4845 71.153 83.6739C70.3803 82.8633 69.9939 81.8368 69.9939 80.5943C69.9939 79.564 70.2818 78.6625 70.8576 77.8898C71.4333 77.1171 72.2288 76.5148 73.2439 76.083C74.2591 75.6436 75.4219 75.4239 76.7326 75.4239C78.6189 75.4239 80.1038 75.833 81.1871 76.6512C82.2704 77.4618 82.9863 78.5489 83.3348 79.9125ZM87.4115 93.1057V75.6512H90.8093V93.1057H87.4115ZM89.1274 72.958C88.5365 72.958 88.029 72.761 87.6047 72.3671C87.188 71.9656 86.9797 71.4883 86.9797 70.9353C86.9797 70.3747 87.188 69.8974 87.6047 69.5034C88.029 69.1019 88.5365 68.9012 89.1274 68.9012C89.7184 68.9012 90.2221 69.1019 90.6388 69.5034C91.063 69.8974 91.2752 70.3747 91.2752 70.9353C91.2752 71.4883 91.063 71.9656 90.6388 72.3671C90.2221 72.761 89.7184 72.958 89.1274 72.958ZM102.698 100.015C101.312 100.015 100.119 99.833 99.1189 99.4693C98.1265 99.1057 97.3159 98.6247 96.6871 98.0262C96.0583 97.4277 95.5886 96.7724 95.278 96.0603L98.1985 94.8557C98.403 95.189 98.6757 95.5413 99.0166 95.9125C99.3651 96.2913 99.8348 96.6133 100.426 96.8784C101.024 97.1436 101.793 97.2762 102.733 97.2762C104.02 97.2762 105.085 96.9618 105.926 96.333C106.767 95.7118 107.187 94.7193 107.187 93.3557V89.9239H106.971C106.767 90.2951 106.471 90.708 106.085 91.1625C105.706 91.6171 105.183 92.011 104.517 92.3443C103.85 92.6777 102.983 92.8443 101.914 92.8443C100.536 92.8443 99.2932 92.5224 98.1871 91.8784C97.0886 91.2269 96.2174 90.2686 95.5735 89.0034C94.9371 87.7307 94.6189 86.1663 94.6189 84.3103C94.6189 82.4542 94.9333 80.8633 95.5621 79.5375C96.1985 78.2118 97.0697 77.1966 98.1757 76.4921C99.2818 75.78 100.536 75.4239 101.937 75.4239C103.02 75.4239 103.895 75.6057 104.562 75.9693C105.229 76.3254 105.748 76.7421 106.119 77.2193C106.498 77.6966 106.789 78.1171 106.994 78.4807H107.244V75.6512H110.573V93.4921C110.573 94.9921 110.225 96.2231 109.528 97.1853C108.831 98.1474 107.888 98.8595 106.698 99.3216C105.517 99.7837 104.183 100.015 102.698 100.015ZM102.664 90.0262C103.642 90.0262 104.467 89.7989 105.142 89.3443C105.823 88.8822 106.339 88.2231 106.687 87.3671C107.043 86.5034 107.221 85.4693 107.221 84.2648C107.221 83.0906 107.047 82.0565 106.698 81.1625C106.35 80.2686 105.839 79.5716 105.164 79.0716C104.49 78.564 103.657 78.3103 102.664 78.3103C101.642 78.3103 100.789 78.5754 100.108 79.1057C99.4257 79.6284 98.9106 80.3406 98.5621 81.2421C98.2212 82.1436 98.0507 83.1512 98.0507 84.2648C98.0507 85.4087 98.225 86.4125 98.5735 87.2762C98.9219 88.1398 99.4371 88.814 100.119 89.2989C100.808 89.7837 101.657 90.0262 102.664 90.0262ZM118.528 82.7421V93.1057H115.13V69.833H118.483V78.4921H118.698C119.108 77.5527 119.733 76.8065 120.573 76.2534C121.414 75.7004 122.513 75.4239 123.869 75.4239C125.066 75.4239 126.111 75.6701 127.005 76.1625C127.907 76.655 128.604 77.3898 129.096 78.3671C129.596 79.3368 129.846 80.5489 129.846 82.0034V93.1057H126.448V82.4125C126.448 81.1322 126.119 80.1398 125.46 79.4353C124.801 78.7231 123.884 78.3671 122.71 78.3671C121.907 78.3671 121.187 78.5375 120.551 78.8784C119.922 79.2193 119.426 79.7193 119.062 80.3784C118.706 81.03 118.528 81.8178 118.528 82.7421ZM142.528 75.6512V78.3784H132.994V75.6512H142.528ZM135.551 71.4693H138.948V87.9807C138.948 88.6398 139.047 89.136 139.244 89.4693C139.441 89.7951 139.695 90.0186 140.005 90.1398C140.323 90.2534 140.668 90.3103 141.039 90.3103C141.312 90.3103 141.551 90.2913 141.755 90.2534C141.96 90.2156 142.119 90.1853 142.233 90.1625L142.846 92.9693C142.649 93.0451 142.369 93.1209 142.005 93.1966C141.642 93.28 141.187 93.3254 140.642 93.333C139.748 93.3481 138.914 93.189 138.142 92.8557C137.369 92.5224 136.744 92.0072 136.267 91.3103C135.789 90.6133 135.551 89.7383 135.551 88.6853V71.4693ZM159.085 79.9125L156.005 80.458C155.876 80.064 155.672 79.689 155.392 79.333C155.119 78.9769 154.748 78.6853 154.278 78.458C153.808 78.2307 153.221 78.1171 152.517 78.1171C151.555 78.1171 150.751 78.333 150.108 78.7648C149.464 79.189 149.142 79.7383 149.142 80.4125C149.142 80.9959 149.358 81.4656 149.789 81.8216C150.221 82.1777 150.918 82.4693 151.88 82.6966L154.653 83.333C156.259 83.7042 157.456 84.2762 158.244 85.0489C159.032 85.8216 159.426 86.8254 159.426 88.0603C159.426 89.1057 159.123 90.0375 158.517 90.8557C157.918 91.6663 157.081 92.3027 156.005 92.7648C154.937 93.2269 153.698 93.458 152.289 93.458C150.335 93.458 148.74 93.0413 147.505 92.208C146.27 91.3671 145.513 90.1739 145.233 88.6284L148.517 88.1284C148.721 88.9845 149.142 89.6322 149.778 90.0716C150.414 90.5034 151.244 90.7193 152.267 90.7193C153.38 90.7193 154.27 90.4883 154.937 90.0262C155.604 89.5565 155.937 88.9845 155.937 88.3103C155.937 87.7648 155.733 87.3065 155.323 86.9353C154.922 86.564 154.305 86.2837 153.471 86.0943L150.517 85.4466C148.888 85.0754 147.683 84.4845 146.903 83.6739C146.13 82.8633 145.744 81.8368 145.744 80.5943C145.744 79.564 146.032 78.6625 146.608 77.8898C147.183 77.1171 147.979 76.5148 148.994 76.083C150.009 75.6436 151.172 75.4239 152.483 75.4239C154.369 75.4239 155.854 75.833 156.937 76.6512C158.02 77.4618 158.736 78.5489 159.085 79.9125Z" fill="white"/>
<path d="M288.68 64V52.8H293.048C294.029 52.8 294.867 52.9547 295.56 53.264C296.253 53.5733 296.787 54.0213 297.16 54.608C297.533 55.1947 297.72 55.8933 297.72 56.704C297.72 57.5147 297.533 58.2133 297.16 58.8C296.787 59.376 296.253 59.8187 295.56 60.128C294.867 60.4373 294.029 60.592 293.048 60.592H289.56L290.28 59.856V64H288.68ZM296.168 64L293.32 59.936H295.032L297.912 64H296.168ZM290.28 60.016L289.56 59.232H293C294.024 59.232 294.797 59.0133 295.32 58.576C295.853 58.128 296.12 57.504 296.12 56.704C296.12 55.904 295.853 55.2853 295.32 54.848C294.797 54.4107 294.024 54.192 293 54.192H289.56L290.28 53.392V60.016ZM303.857 64.096C302.95 64.096 302.15 63.9093 301.457 63.536C300.774 63.1627 300.241 62.6507 299.857 62C299.484 61.3493 299.297 60.6027 299.297 59.76C299.297 58.9173 299.478 58.1707 299.841 57.52C300.214 56.8693 300.721 56.3627 301.361 56C302.012 55.6267 302.742 55.44 303.553 55.44C304.374 55.44 305.1 55.6213 305.729 55.984C306.358 56.3467 306.849 56.8587 307.201 57.52C307.564 58.1707 307.745 58.9333 307.745 59.808C307.745 59.872 307.74 59.9467 307.729 60.032C307.729 60.1173 307.724 60.1973 307.713 60.272H300.497V59.168H306.913L306.289 59.552C306.3 59.008 306.188 58.5227 305.953 58.096C305.718 57.6693 305.393 57.3387 304.977 57.104C304.572 56.8587 304.097 56.736 303.553 56.736C303.02 56.736 302.545 56.8587 302.129 57.104C301.713 57.3387 301.388 57.6747 301.153 58.112C300.918 58.5387 300.801 59.0293 300.801 59.584V59.84C300.801 60.4053 300.929 60.912 301.185 61.36C301.452 61.7973 301.82 62.1387 302.289 62.384C302.758 62.6293 303.297 62.752 303.905 62.752C304.406 62.752 304.86 62.6667 305.265 62.496C305.681 62.3253 306.044 62.0693 306.353 61.728L307.201 62.72C306.817 63.168 306.337 63.5093 305.761 63.744C305.196 63.9787 304.561 64.096 303.857 64.096ZM314.908 64V62.208L314.828 61.872V58.816C314.828 58.1653 314.636 57.664 314.252 57.312C313.878 56.9493 313.313 56.768 312.556 56.768C312.054 56.768 311.564 56.8533 311.084 57.024C310.604 57.184 310.198 57.4027 309.868 57.68L309.228 56.528C309.665 56.176 310.188 55.9093 310.796 55.728C311.414 55.536 312.06 55.44 312.732 55.44C313.894 55.44 314.79 55.7227 315.42 56.288C316.049 56.8533 316.364 57.7173 316.364 58.88V64H314.908ZM312.124 64.096C311.494 64.096 310.94 63.9893 310.46 63.776C309.99 63.5627 309.628 63.2693 309.372 62.896C309.116 62.512 308.988 62.08 308.988 61.6C308.988 61.1413 309.094 60.7253 309.308 60.352C309.532 59.9787 309.889 59.68 310.38 59.456C310.881 59.232 311.553 59.12 312.396 59.12H315.084V60.224H312.46C311.692 60.224 311.174 60.352 310.908 60.608C310.641 60.864 310.508 61.1733 310.508 61.536C310.508 61.952 310.673 62.288 311.004 62.544C311.334 62.7893 311.793 62.912 312.38 62.912C312.956 62.912 313.457 62.784 313.884 62.528C314.321 62.272 314.636 61.8987 314.828 61.408L315.132 62.464C314.929 62.9653 314.572 63.3653 314.06 63.664C313.548 63.952 312.902 64.096 312.124 64.096ZM319.206 64V52.128H320.742V64H319.206ZM330.42 64V54.192H326.58V52.8H335.844V54.192H332.004V64H330.42ZM337.362 64V55.52H338.898V64H337.362ZM338.13 53.888C337.832 53.888 337.581 53.792 337.378 53.6C337.186 53.408 337.09 53.1733 337.09 52.896C337.09 52.608 337.186 52.368 337.378 52.176C337.581 51.984 337.832 51.888 338.13 51.888C338.429 51.888 338.674 51.984 338.866 52.176C339.069 52.3573 339.17 52.5867 339.17 52.864C339.17 53.152 339.074 53.3973 338.882 53.6C338.69 53.792 338.44 53.888 338.13 53.888ZM352.439 55.44C353.122 55.44 353.724 55.5733 354.247 55.84C354.77 56.1067 355.175 56.512 355.463 57.056C355.762 57.6 355.911 58.288 355.911 59.12V64H354.375V59.296C354.375 58.4747 354.183 57.856 353.799 57.44C353.415 57.024 352.876 56.816 352.183 56.816C351.671 56.816 351.223 56.9227 350.839 57.136C350.455 57.3493 350.156 57.664 349.943 58.08C349.74 58.496 349.639 59.0133 349.639 59.632V64H348.103V59.296C348.103 58.4747 347.911 57.856 347.527 57.44C347.154 57.024 346.615 56.816 345.911 56.816C345.41 56.816 344.967 56.9227 344.583 57.136C344.199 57.3493 343.9 57.664 343.687 58.08C343.474 58.496 343.367 59.0133 343.367 59.632V64H341.831V55.52H343.303V57.776L343.063 57.2C343.33 56.6453 343.74 56.2133 344.295 55.904C344.85 55.5947 345.495 55.44 346.231 55.44C347.042 55.44 347.74 55.6427 348.327 56.048C348.914 56.4427 349.298 57.0453 349.479 57.856L348.855 57.6C349.111 56.9493 349.559 56.4267 350.199 56.032C350.839 55.6373 351.586 55.44 352.439 55.44ZM362.513 64.096C361.607 64.096 360.807 63.9093 360.113 63.536C359.431 63.1627 358.897 62.6507 358.513 62C358.14 61.3493 357.953 60.6027 357.953 59.76C357.953 58.9173 358.135 58.1707 358.497 57.52C358.871 56.8693 359.377 56.3627 360.017 56C360.668 55.6267 361.399 55.44 362.209 55.44C363.031 55.44 363.756 55.6213 364.385 55.984C365.015 56.3467 365.505 56.8587 365.857 57.52C366.22 58.1707 366.401 58.9333 366.401 59.808C366.401 59.872 366.396 59.9467 366.385 60.032C366.385 60.1173 366.38 60.1973 366.369 60.272H359.153V59.168H365.569L364.945 59.552C364.956 59.008 364.844 58.5227 364.609 58.096C364.375 57.6693 364.049 57.3387 363.633 57.104C363.228 56.8587 362.753 56.736 362.209 56.736C361.676 56.736 361.201 56.8587 360.785 57.104C360.369 57.3387 360.044 57.6747 359.809 58.112C359.575 58.5387 359.457 59.0293 359.457 59.584V59.84C359.457 60.4053 359.585 60.912 359.841 61.36C360.108 61.7973 360.476 62.1387 360.945 62.384C361.415 62.6293 361.953 62.752 362.561 62.752C363.063 62.752 363.516 62.6667 363.921 62.496C364.337 62.3253 364.7 62.0693 365.009 61.728L365.857 62.72C365.473 63.168 364.993 63.5093 364.417 63.744C363.852 63.9787 363.217 64.096 362.513 64.096ZM293.32 84.128C291.848 84.128 290.691 83.7067 289.848 82.864C289.005 82.0213 288.584 80.7893 288.584 79.168V72.8H290.184V79.104C290.184 80.352 290.456 81.264 291 81.84C291.555 82.416 292.333 82.704 293.336 82.704C294.349 82.704 295.128 82.416 295.672 81.84C296.227 81.264 296.504 80.352 296.504 79.104V72.8H298.056V79.168C298.056 80.7893 297.635 82.0213 296.792 82.864C295.96 83.7067 294.803 84.128 293.32 84.128ZM305.608 84.096C304.904 84.096 304.259 83.936 303.672 83.616C303.096 83.2853 302.632 82.8 302.28 82.16C301.939 81.52 301.768 80.72 301.768 79.76C301.768 78.8 301.934 78 302.264 77.36C302.606 76.72 303.064 76.24 303.64 75.92C304.227 75.6 304.883 75.44 305.608 75.44C306.44 75.44 307.176 75.6213 307.816 75.984C308.456 76.3467 308.963 76.8533 309.336 77.504C309.71 78.144 309.896 78.896 309.896 79.76C309.896 80.624 309.71 81.3813 309.336 82.032C308.963 82.6827 308.456 83.1893 307.816 83.552C307.176 83.9147 306.44 84.096 305.608 84.096ZM301.112 87.104V75.52H302.584V77.808L302.488 79.776L302.648 81.744V87.104H301.112ZM305.48 82.752C306.024 82.752 306.51 82.6293 306.936 82.384C307.374 82.1387 307.715 81.792 307.96 81.344C308.216 80.8853 308.344 80.3573 308.344 79.76C308.344 79.152 308.216 78.6293 307.96 78.192C307.715 77.744 307.374 77.3973 306.936 77.152C306.51 76.9067 306.024 76.784 305.48 76.784C304.947 76.784 304.462 76.9067 304.024 77.152C303.598 77.3973 303.256 77.744 303 78.192C302.755 78.6293 302.632 79.152 302.632 79.76C302.632 80.3573 302.755 80.8853 303 81.344C303.256 81.792 303.598 82.1387 304.024 82.384C304.462 82.6293 304.947 82.752 305.48 82.752ZM315.523 84.096C314.701 84.096 313.965 83.9147 313.315 83.552C312.675 83.1893 312.168 82.6827 311.795 82.032C311.421 81.3813 311.235 80.624 311.235 79.76C311.235 78.896 311.421 78.144 311.795 77.504C312.168 76.8533 312.675 76.3467 313.315 75.984C313.965 75.6213 314.701 75.44 315.523 75.44C316.237 75.44 316.883 75.6 317.459 75.92C318.035 76.24 318.493 76.72 318.835 77.36C319.187 78 319.363 78.8 319.363 79.76C319.363 80.72 319.192 81.52 318.851 82.16C318.52 82.8 318.067 83.2853 317.491 83.616C316.915 83.936 316.259 84.096 315.523 84.096ZM315.651 82.752C316.184 82.752 316.664 82.6293 317.091 82.384C317.528 82.1387 317.869 81.792 318.115 81.344C318.371 80.8853 318.499 80.3573 318.499 79.76C318.499 79.152 318.371 78.6293 318.115 78.192C317.869 77.744 317.528 77.3973 317.091 77.152C316.664 76.9067 316.184 76.784 315.651 76.784C315.107 76.784 314.621 76.9067 314.195 77.152C313.768 77.3973 313.427 77.744 313.171 78.192C312.915 78.6293 312.787 79.152 312.787 79.76C312.787 80.3573 312.915 80.8853 313.171 81.344C313.427 81.792 313.768 82.1387 314.195 82.384C314.621 82.6293 315.107 82.752 315.651 82.752ZM318.547 84V81.712L318.642 79.744L318.483 77.776V72.128H320.019V84H318.547ZM328.189 84V82.208L328.109 81.872V78.816C328.109 78.1653 327.917 77.664 327.533 77.312C327.159 76.9493 326.594 76.768 325.837 76.768C325.335 76.768 324.845 76.8533 324.365 77.024C323.885 77.184 323.479 77.4027 323.149 77.68L322.509 76.528C322.946 76.176 323.469 75.9093 324.077 75.728C324.695 75.536 325.341 75.44 326.013 75.44C327.175 75.44 328.071 75.7227 328.701 76.288C329.33 76.8533 329.645 77.7173 329.645 78.88V84H328.189ZM325.405 84.096C324.775 84.096 324.221 83.9893 323.741 83.776C323.271 83.5627 322.909 83.2693 322.653 82.896C322.397 82.512 322.269 82.08 322.269 81.6C322.269 81.1413 322.375 80.7253 322.589 80.352C322.813 79.9787 323.17 79.68 323.661 79.456C324.162 79.232 324.834 79.12 325.677 79.12H328.365V80.224H325.741C324.973 80.224 324.455 80.352 324.189 80.608C323.922 80.864 323.789 81.1733 323.789 81.536C323.789 81.952 323.954 82.288 324.285 82.544C324.615 82.7893 325.074 82.912 325.661 82.912C326.237 82.912 326.738 82.784 327.165 82.528C327.602 82.272 327.917 81.8987 328.109 81.408L328.413 82.464C328.21 82.9653 327.853 83.3653 327.341 83.664C326.829 83.952 326.183 84.096 325.405 84.096ZM335.399 84.096C334.546 84.096 333.885 83.8667 333.415 83.408C332.946 82.9493 332.711 82.2933 332.711 81.44V73.664H334.247V81.376C334.247 81.8347 334.359 82.1867 334.583 82.432C334.818 82.6773 335.149 82.8 335.575 82.8C336.055 82.8 336.455 82.6667 336.775 82.4L337.255 83.504C337.021 83.7067 336.738 83.856 336.407 83.952C336.087 84.048 335.751 84.096 335.399 84.096ZM331.271 76.784V75.52H336.679V76.784H331.271ZM342.607 84.096C341.7 84.096 340.9 83.9093 340.207 83.536C339.524 83.1627 338.991 82.6507 338.607 82C338.234 81.3493 338.047 80.6027 338.047 79.76C338.047 78.9173 338.228 78.1707 338.591 77.52C338.964 76.8693 339.471 76.3627 340.111 76C340.762 75.6267 341.492 75.44 342.303 75.44C343.124 75.44 343.85 75.6213 344.479 75.984C345.108 76.3467 345.599 76.8587 345.951 77.52C346.314 78.1707 346.495 78.9333 346.495 79.808C346.495 79.872 346.49 79.9467 346.479 80.032C346.479 80.1173 346.474 80.1973 346.463 80.272H339.247V79.168H345.663L345.039 79.552C345.05 79.008 344.938 78.5227 344.703 78.096C344.468 77.6693 344.143 77.3387 343.727 77.104C343.322 76.8587 342.847 76.736 342.303 76.736C341.77 76.736 341.295 76.8587 340.879 77.104C340.463 77.3387 340.138 77.6747 339.903 78.112C339.668 78.5387 339.551 79.0293 339.551 79.584V79.84C339.551 80.4053 339.679 80.912 339.935 81.36C340.202 81.7973 340.57 82.1387 341.039 82.384C341.508 82.6293 342.047 82.752 342.655 82.752C343.156 82.752 343.61 82.6667 344.015 82.496C344.431 82.3253 344.794 82.0693 345.103 81.728L345.951 82.72C345.567 83.168 345.087 83.5093 344.511 83.744C343.946 83.9787 343.311 84.096 342.607 84.096ZM351.06 84.096C350.356 84.096 349.684 84 349.044 83.808C348.415 83.616 347.919 83.3813 347.556 83.104L348.196 81.888C348.559 82.1333 349.007 82.3413 349.54 82.512C350.073 82.6827 350.617 82.768 351.172 82.768C351.887 82.768 352.399 82.6667 352.708 82.464C353.028 82.2613 353.188 81.9787 353.188 81.616C353.188 81.3493 353.092 81.1413 352.9 80.992C352.708 80.8427 352.452 80.7307 352.132 80.656C351.823 80.5813 351.476 80.5173 351.092 80.464C350.708 80.4 350.324 80.3253 349.94 80.24C349.556 80.144 349.204 80.016 348.884 79.856C348.564 79.6853 348.308 79.456 348.116 79.168C347.924 78.8693 347.828 78.4747 347.828 77.984C347.828 77.472 347.972 77.024 348.26 76.64C348.548 76.256 348.953 75.9627 349.476 75.76C350.009 75.5467 350.639 75.44 351.364 75.44C351.919 75.44 352.479 75.5093 353.044 75.648C353.62 75.776 354.089 75.9627 354.452 76.208L353.796 77.424C353.412 77.168 353.012 76.992 352.596 76.896C352.18 76.8 351.764 76.752 351.348 76.752C350.676 76.752 350.175 76.864 349.844 77.088C349.513 77.3013 349.348 77.5787 349.348 77.92C349.348 78.208 349.444 78.432 349.636 78.592C349.839 78.7413 350.095 78.8587 350.404 78.944C350.724 79.0293 351.076 79.104 351.46 79.168C351.844 79.2213 352.228 79.296 352.612 79.392C352.996 79.4773 353.343 79.6 353.652 79.76C353.972 79.92 354.228 80.144 354.42 80.432C354.623 80.72 354.724 81.104 354.724 81.584C354.724 82.096 354.575 82.5387 354.276 82.912C353.977 83.2853 353.556 83.5787 353.012 83.792C352.468 83.9947 351.817 84.096 351.06 84.096Z" fill="white"/>
<path d="M391.97 75.6671C390.242 75.6671 388.49 75.4751 386.714 75.0911C384.938 74.7071 383.378 74.1431 382.034 73.3991L384.914 67.1351C385.994 67.7591 387.122 68.2271 388.298 68.5391C389.474 68.8271 390.59 68.9711 391.646 68.9711C392.606 68.9711 393.398 68.8031 394.022 68.4671C394.646 68.1311 394.958 67.6391 394.958 66.9911C394.958 66.6311 394.85 66.3191 394.634 66.0551C394.418 65.7671 394.034 65.5511 393.482 65.4071C392.954 65.2631 392.174 65.1911 391.142 65.1911H383.834L385.094 49.8911H401.834V56.2991H388.082L392.366 52.6631L391.61 62.4191L387.326 58.7831H393.194C395.69 58.7831 397.682 59.1431 399.17 59.8631C400.682 60.5831 401.774 61.5551 402.446 62.7791C403.142 63.9791 403.49 65.3231 403.49 66.8111C403.49 68.2991 403.082 69.7271 402.266 71.0951C401.474 72.4391 400.226 73.5431 398.522 74.4071C396.842 75.2471 394.658 75.6671 391.97 75.6671ZM408.652 75.0911L425.86 49.8911H431.944L414.736 75.0911H408.652ZM411.064 63.5711C409.792 63.5711 408.652 63.3071 407.644 62.7791C406.636 62.2271 405.832 61.4231 405.232 60.3671C404.656 59.3111 404.368 58.0391 404.368 56.5511C404.368 55.0631 404.656 53.8031 405.232 52.7711C405.832 51.7151 406.636 50.9111 407.644 50.3591C408.652 49.8071 409.792 49.5311 411.064 49.5311C412.336 49.5311 413.476 49.8071 414.484 50.3591C415.492 50.9111 416.284 51.7151 416.86 52.7711C417.46 53.8031 417.76 55.0631 417.76 56.5511C417.76 58.0391 417.46 59.3111 416.86 60.3671C416.284 61.4231 415.492 62.2271 414.484 62.7791C413.476 63.3071 412.336 63.5711 411.064 63.5711ZM411.064 59.6831C411.472 59.6831 411.832 59.4671 412.144 59.0351C412.48 58.5791 412.648 57.7511 412.648 56.5511C412.648 55.3511 412.48 54.5351 412.144 54.1031C411.832 53.6471 411.472 53.4191 411.064 53.4191C410.68 53.4191 410.32 53.6471 409.984 54.1031C409.648 54.5351 409.48 55.3511 409.48 56.5511C409.48 57.7511 409.648 58.5791 409.984 59.0351C410.32 59.4671 410.68 59.6831 411.064 59.6831ZM429.532 75.4511C428.26 75.4511 427.12 75.1871 426.112 74.6591C425.104 74.1071 424.3 73.3031 423.7 72.2471C423.124 71.1911 422.836 69.9191 422.836 68.4311C422.836 66.9431 423.124 65.6831 423.7 64.6511C424.3 63.5951 425.104 62.7911 426.112 62.2391C427.12 61.6871 428.26 61.4111 429.532 61.4111C430.804 61.4111 431.944 61.6871 432.952 62.2391C433.96 62.7911 434.752 63.5951 435.328 64.6511C435.928 65.6831 436.228 66.9431 436.228 68.4311C436.228 69.9191 435.928 71.1911 435.328 72.2471C434.752 73.3031 433.96 74.1071 432.952 74.6591C431.944 75.1871 430.804 75.4511 429.532 75.4511ZM429.532 71.5631C429.94 71.5631 430.3 71.3471 430.612 70.9151C430.948 70.4591 431.116 69.6311 431.116 68.4311C431.116 67.2311 430.948 66.4151 430.612 65.9831C430.3 65.5271 429.94 65.2991 429.532 65.2991C429.148 65.2991 428.788 65.5271 428.452 65.9831C428.116 66.4151 427.948 67.2311 427.948 68.4311C427.948 69.6311 428.116 70.4591 428.452 70.9151C428.788 71.3471 429.148 71.5631 429.532 71.5631Z" fill="#1DD1E3"/>
<path d="M38.9216 318.014C38.2109 318.014 37.5739 317.832 37.0106 317.468C36.4559 317.104 36.0139 316.575 35.6846 315.882C35.3639 315.189 35.2036 314.348 35.2036 313.36C35.2036 312.372 35.3639 311.531 35.6846 310.838C36.0139 310.145 36.4559 309.616 37.0106 309.252C37.5739 308.888 38.2109 308.706 38.9216 308.706C39.6236 308.706 40.2563 308.888 40.8196 309.252C41.3829 309.616 41.8249 310.145 42.1456 310.838C42.4663 311.531 42.6266 312.372 42.6266 313.36C42.6266 314.348 42.4663 315.189 42.1456 315.882C41.8249 316.575 41.3829 317.104 40.8196 317.468C40.2563 317.832 39.6236 318.014 38.9216 318.014ZM38.9216 316.857C39.3983 316.857 39.8143 316.727 40.1696 316.467C40.5336 316.207 40.8153 315.817 41.0146 315.297C41.2226 314.777 41.3266 314.131 41.3266 313.36C41.3266 312.589 41.2226 311.943 41.0146 311.423C40.8153 310.903 40.5336 310.513 40.1696 310.253C39.8143 309.993 39.3983 309.863 38.9216 309.863C38.4449 309.863 38.0246 309.993 37.6606 310.253C37.2966 310.513 37.0106 310.903 36.8026 311.423C36.6033 311.943 36.5036 312.589 36.5036 313.36C36.5036 314.131 36.6033 314.777 36.8026 315.297C37.0106 315.817 37.2966 316.207 37.6606 316.467C38.0246 316.727 38.4449 316.857 38.9216 316.857ZM45.4085 317.91V309.33L45.9675 309.941H43.3545V308.81H46.6955V317.91H45.4085Z" fill="white"/>
<path d="M500.821 317.006C500.165 317.006 499.577 316.838 499.057 316.502C498.545 316.166 498.137 315.678 497.833 315.038C497.537 314.398 497.389 313.622 497.389 312.71C497.389 311.798 497.537 311.022 497.833 310.382C498.137 309.742 498.545 309.254 499.057 308.918C499.577 308.582 500.165 308.414 500.821 308.414C501.469 308.414 502.053 308.582 502.573 308.918C503.093 309.254 503.501 309.742 503.797 310.382C504.093 311.022 504.241 311.798 504.241 312.71C504.241 313.622 504.093 314.398 503.797 315.038C503.501 315.678 503.093 316.166 502.573 316.502C502.053 316.838 501.469 317.006 500.821 317.006ZM500.821 315.938C501.261 315.938 501.645 315.818 501.973 315.578C502.309 315.338 502.569 314.978 502.753 314.498C502.945 314.018 503.041 313.422 503.041 312.71C503.041 311.998 502.945 311.402 502.753 310.922C502.569 310.442 502.309 310.082 501.973 309.842C501.645 309.602 501.261 309.482 500.821 309.482C500.381 309.482 499.993 309.602 499.657 309.842C499.321 310.082 499.057 310.442 498.865 310.922C498.681 311.402 498.589 311.998 498.589 312.71C498.589 313.422 498.681 314.018 498.865 314.498C499.057 314.978 499.321 315.338 499.657 315.578C499.993 315.818 500.381 315.938 500.821 315.938ZM505.261 316.91V316.094L508.681 312.794C508.985 312.506 509.209 312.254 509.353 312.038C509.505 311.814 509.605 311.61 509.653 311.426C509.709 311.234 509.737 311.05 509.737 310.874C509.737 310.442 509.585 310.102 509.281 309.854C508.977 309.606 508.533 309.482 507.949 309.482C507.501 309.482 507.097 309.558 506.737 309.71C506.377 309.854 506.065 310.082 505.801 310.394L504.985 309.686C505.305 309.278 505.733 308.966 506.269 308.75C506.813 308.526 507.409 308.414 508.057 308.414C508.641 308.414 509.149 308.51 509.581 308.702C510.013 308.886 510.345 309.154 510.577 309.506C510.817 309.858 510.937 310.274 510.937 310.754C510.937 311.026 510.901 311.294 510.829 311.558C510.757 311.822 510.621 312.102 510.421 312.398C510.221 312.694 509.933 313.026 509.557 313.394L506.509 316.334L506.221 315.866H511.297V316.91H505.261Z" fill="white"/>
<path d="M484.454 313.586H61.7925C61.4165 313.586 61.0556 313.733 60.7874 313.997C60.5193 314.26 60.3654 314.619 60.3589 314.995V314.995C60.3621 315.18 60.4017 315.362 60.4755 315.532C60.5493 315.702 60.6558 315.855 60.7889 315.984C60.9221 316.112 61.0792 316.213 61.2514 316.281C61.4236 316.349 61.6075 316.382 61.7925 316.379H484.454C484.828 316.379 485.186 316.23 485.451 315.966C485.715 315.702 485.863 315.343 485.863 314.97V314.97C485.851 314.603 485.697 314.254 485.435 313.996C485.173 313.739 484.822 313.592 484.454 313.586Z" fill="#3A3D4C"/>
<defs>
<linearGradient id="paint0_linear_339_7" x1="398.34" y1="391.963" x2="153.691" y2="-25.6811" gradientUnits="userSpaceOnUse">
<stop stop-color="#121623"/>
<stop offset="0.99" stop-color="#272935"/>
</linearGradient>
<linearGradient id="paint1_linear_339_7" x1="276.312" y1="250.928" x2="276.312" y2="79.2677" gradientUnits="userSpaceOnUse">
<stop stop-color="#C31FE6"/>
<stop offset="0.99" stop-color="#FBFEFE"/>
</linearGradient>
<linearGradient id="paint2_linear_339_7" x1="276.312" y1="250.928" x2="276.312" y2="100.846" gradientUnits="userSpaceOnUse">
<stop offset="0.01" stop-color="#5A6FF0"/>
<stop offset="0.13" stop-color="#5577EF"/>
<stop offset="0.33" stop-color="#488DEC"/>
<stop offset="0.57" stop-color="#31B0E7"/>
<stop offset="0.84" stop-color="#13E1E1"/>
<stop offset="0.99" stop-color="#00FFDD"/>
</linearGradient>
<linearGradient id="paint3_linear_339_7" x1="41.5986" y1="203.323" x2="511.001" y2="203.323" gradientUnits="userSpaceOnUse">
<stop offset="0.01" stop-color="#5A6FF0"/>
<stop offset="0.99" stop-color="#C31FE6"/>
</linearGradient>
</defs>
</svg>
