<svg width="546" height="357" viewBox="0 0 546 357" fill="none" xmlns="http://www.w3.org/2000/svg">
<path d="M522.914 0.519287H23.0857C10.3358 0.519287 0 10.8551 0 23.605V333.434C0 346.183 10.3358 356.519 23.0857 356.519H522.914C535.664 356.519 546 346.183 546 333.434V23.605C546 10.8551 535.664 0.519287 522.914 0.519287Z" fill="url(#paint0_linear_339_45)"/>
<path d="M41.5986 129.048C41.5986 129.048 92.8371 167.335 155.297 167.335C217.757 167.335 229.152 123.388 260.79 123.388C292.427 123.388 329.355 154.359 403.951 154.359C478.547 154.359 510.926 79.8367 510.926 79.8367V251.497H41.5986V129.048Z" fill="url(#paint1_linear_339_45)"/>
<path d="M41.5986 196.452C41.5986 196.452 82.2829 139.602 131.445 139.602C180.607 139.602 210.095 183.179 256.909 183.179C303.723 183.179 332.716 101.365 391.494 101.365C450.271 101.365 511.001 186.515 511.001 186.515V251.447H41.5986V196.452Z" fill="url(#paint2_linear_339_45)"/>
<path d="M29.6606 144.718C29.6459 145.358 29.4423 145.978 29.0755 146.502C28.7087 147.025 28.1951 147.429 27.5995 147.661C27.0038 147.893 26.3528 147.944 25.7284 147.806C25.104 147.669 24.5342 147.35 24.0908 146.89C23.6474 146.429 23.3503 145.848 23.2369 145.218C23.1235 144.589 23.1989 143.941 23.4535 143.354C23.7082 142.768 24.1307 142.27 24.6679 141.923C25.2051 141.577 25.8328 141.397 26.4721 141.406C26.8994 141.413 27.3213 141.504 27.7133 141.674C28.1053 141.844 28.4597 142.09 28.7562 142.398C29.0526 142.706 29.2851 143.07 29.4403 143.468C29.5955 143.866 29.6704 144.291 29.6606 144.718V144.718Z" fill="#3A3D4C"/>
<path d="M29.6604 176.307C29.6604 176.948 29.4705 177.574 29.1148 178.106C28.759 178.639 28.2533 179.054 27.6616 179.299C27.07 179.544 26.4189 179.608 25.7908 179.483C25.1627 179.358 24.5858 179.05 24.1329 178.597C23.6801 178.144 23.3717 177.567 23.2468 176.939C23.1219 176.311 23.186 175.66 23.431 175.068C23.6761 174.477 24.0911 173.971 24.6236 173.615C25.1561 173.259 25.7821 173.069 26.4225 173.069C27.2813 173.069 28.1048 173.41 28.7121 174.018C29.3193 174.625 29.6604 175.449 29.6604 176.307V176.307Z" fill="#3A3D4C"/>
<path d="M29.6604 207.921C29.6555 208.56 29.4614 209.183 29.1027 209.713C28.7439 210.242 28.2366 210.653 27.6445 210.894C27.0524 211.136 26.4022 211.196 25.7757 211.068C25.1492 210.941 24.5746 210.63 24.1243 210.177C23.6739 209.723 23.3679 209.146 23.245 208.518C23.1221 207.891 23.1876 207.241 23.4334 206.651C23.6792 206.061 24.0942 205.557 24.6261 205.202C25.158 204.847 25.7831 204.658 26.4224 204.658C26.8497 204.658 27.2728 204.742 27.6673 204.907C28.0617 205.071 28.4198 205.312 28.7208 205.615C29.0218 205.918 29.2597 206.278 29.421 206.674C29.5823 207.07 29.6636 207.493 29.6604 207.921V207.921Z" fill="#3A3D4C"/>
<path d="M29.6604 239.508C29.6604 240.149 29.4705 240.775 29.1148 241.307C28.759 241.84 28.2533 242.255 27.6616 242.5C27.07 242.745 26.4189 242.809 25.7908 242.684C25.1627 242.559 24.5858 242.251 24.1329 241.798C23.6801 241.345 23.3717 240.768 23.2468 240.14C23.1219 239.512 23.186 238.861 23.431 238.269C23.6761 237.678 24.0911 237.172 24.6236 236.816C25.1561 236.46 25.7821 236.271 26.4225 236.271C27.2813 236.271 28.1048 236.612 28.7121 237.219C29.3193 237.826 29.6604 238.65 29.6604 239.508V239.508Z" fill="#3A3D4C"/>
<path d="M42.736 263.756C44.5242 263.756 45.9739 262.306 45.9739 260.518C45.9739 258.73 44.5242 257.28 42.736 257.28C40.9477 257.28 39.498 258.73 39.498 260.518C39.498 262.306 40.9477 263.756 42.736 263.756Z" fill="#3A3D4C"/>
<path d="M88.264 260.518C88.264 261.158 88.0741 261.784 87.7183 262.317C87.3625 262.849 86.8568 263.264 86.2651 263.509C85.6735 263.754 85.0224 263.819 84.3943 263.694C83.7662 263.569 83.1893 263.26 82.7365 262.807C82.2836 262.355 81.9752 261.778 81.8503 261.15C81.7254 260.521 81.7895 259.87 82.0346 259.279C82.2796 258.687 82.6947 258.181 83.2271 257.826C83.7596 257.47 84.3856 257.28 85.026 257.28C85.8828 257.286 86.7026 257.63 87.3084 258.235C87.9143 258.841 88.2575 259.661 88.264 260.518V260.518Z" fill="#3A3D4C"/>
<path d="M130.531 260.518C130.531 261.158 130.341 261.784 129.985 262.317C129.629 262.849 129.123 263.264 128.532 263.509C127.94 263.754 127.289 263.819 126.661 263.694C126.033 263.569 125.456 263.26 125.003 262.807C124.55 262.355 124.242 261.778 124.117 261.15C123.992 260.521 124.056 259.87 124.301 259.279C124.546 258.687 124.961 258.181 125.494 257.826C126.026 257.47 126.652 257.28 127.293 257.28C128.151 257.28 128.975 257.621 129.582 258.228C130.189 258.836 130.531 259.659 130.531 260.518V260.518Z" fill="#3A3D4C"/>
<path d="M172.822 260.518C172.827 261.164 172.64 261.797 172.284 262.337C171.929 262.877 171.421 263.299 170.825 263.55C170.229 263.8 169.573 263.869 168.938 263.746C168.304 263.622 167.72 263.314 167.261 262.858C166.803 262.403 166.489 261.822 166.361 261.188C166.233 260.555 166.297 259.897 166.543 259.3C166.789 258.702 167.207 258.191 167.744 257.832C168.281 257.472 168.913 257.28 169.559 257.28C170.42 257.28 171.247 257.62 171.858 258.227C172.469 258.833 172.816 259.657 172.822 260.518V260.518Z" fill="#3A3D4C"/>
<path d="M215.038 260.518C215.038 261.158 214.848 261.784 214.493 262.317C214.137 262.849 213.631 263.264 213.04 263.509C212.448 263.754 211.797 263.819 211.169 263.694C210.541 263.569 209.964 263.26 209.511 262.807C209.058 262.355 208.75 261.778 208.625 261.15C208.5 260.521 208.564 259.87 208.809 259.279C209.054 258.687 209.469 258.181 210.002 257.826C210.534 257.47 211.16 257.28 211.8 257.28C212.657 257.286 213.477 257.63 214.083 258.235C214.689 258.841 215.032 259.661 215.038 260.518V260.518Z" fill="#3A3D4C"/>
<path d="M257.354 260.518C257.354 261.158 257.164 261.784 256.809 262.317C256.453 262.849 255.947 263.264 255.355 263.509C254.764 263.754 254.113 263.819 253.485 263.694C252.857 263.569 252.28 263.26 251.827 262.807C251.374 262.355 251.066 261.778 250.941 261.15C250.816 260.521 250.88 259.87 251.125 259.279C251.37 258.687 251.785 258.181 252.317 257.826C252.85 257.47 253.476 257.28 254.116 257.28C254.975 257.28 255.799 257.621 256.406 258.228C257.013 258.836 257.354 259.659 257.354 260.518V260.518Z" fill="#3A3D4C"/>
<path d="M299.644 260.518C299.649 261.164 299.462 261.797 299.107 262.337C298.751 262.877 298.243 263.299 297.647 263.55C297.052 263.8 296.395 263.869 295.76 263.746C295.126 263.622 294.542 263.314 294.084 262.858C293.625 262.403 293.312 261.822 293.184 261.188C293.056 260.555 293.119 259.897 293.365 259.3C293.611 258.702 294.029 258.191 294.567 257.832C295.104 257.472 295.735 257.28 296.382 257.28C297.243 257.28 298.069 257.62 298.68 258.227C299.291 258.833 299.638 259.657 299.644 260.518V260.518Z" fill="#3A3D4C"/>
<path d="M341.911 260.518C341.911 261.158 341.721 261.784 341.365 262.317C341.009 262.849 340.504 263.264 339.912 263.509C339.32 263.754 338.669 263.819 338.041 263.694C337.413 263.569 336.836 263.26 336.383 262.807C335.931 262.355 335.622 261.778 335.497 261.15C335.372 260.521 335.436 259.87 335.682 259.279C335.927 258.687 336.342 258.181 336.874 257.826C337.407 257.47 338.033 257.28 338.673 257.28C339.53 257.286 340.35 257.63 340.955 258.235C341.561 258.841 341.904 259.661 341.911 260.518V260.518Z" fill="#3A3D4C"/>
<path d="M380.94 263.756C382.728 263.756 384.178 262.306 384.178 260.518C384.178 258.73 382.728 257.28 380.94 257.28C379.151 257.28 377.702 258.73 377.702 260.518C377.702 262.306 379.151 263.756 380.94 263.756Z" fill="#3A3D4C"/>
<path d="M423.23 263.756C425.018 263.756 426.468 262.306 426.468 260.518C426.468 258.73 425.018 257.28 423.23 257.28C421.442 257.28 419.992 258.73 419.992 260.518C419.992 262.306 421.442 263.756 423.23 263.756Z" fill="#3A3D4C"/>
<path d="M468.735 260.518C468.735 261.158 468.545 261.784 468.189 262.317C467.833 262.849 467.327 263.264 466.736 263.509C466.144 263.754 465.493 263.819 464.865 263.694C464.237 263.569 463.66 263.26 463.207 262.807C462.754 262.355 462.446 261.778 462.321 261.15C462.196 260.521 462.26 259.87 462.505 259.279C462.75 258.687 463.165 258.181 463.698 257.826C464.23 257.47 464.856 257.28 465.497 257.28C466.353 257.286 467.173 257.63 467.779 258.235C468.385 258.841 468.728 259.661 468.735 260.518Z" fill="#3A3D4C"/>
<path d="M507.763 263.756C509.552 263.756 511.001 262.306 511.001 260.518C511.001 258.73 509.552 257.28 507.763 257.28C505.975 257.28 504.525 258.73 504.525 260.518C504.525 262.306 505.975 263.756 507.763 263.756Z" fill="#3A3D4C"/>
<path d="M41.5986 206.981C41.5986 206.981 74.0027 185.057 114.316 185.057C154.63 185.057 200.579 220.946 233.354 220.946C266.129 220.946 281.503 188.171 321.52 188.171C361.536 188.171 382.15 214.075 423.23 214.075C464.31 214.075 476.718 156.237 511.001 156.237V251.447H41.5986V206.981Z" fill="url(#paint3_linear_339_45)"/>
<path d="M58.528 38.7045C58.3083 38.0152 58.0129 37.3977 57.6416 36.8523C57.278 36.2992 56.8424 35.8295 56.3348 35.4432C55.8273 35.0492 55.2477 34.75 54.5962 34.5455C53.9523 34.3409 53.2439 34.2386 52.4712 34.2386C51.1606 34.2386 49.9788 34.5758 48.9257 35.25C47.8727 35.9242 47.0394 36.9129 46.4257 38.2159C45.8197 39.5114 45.5166 41.0985 45.5166 42.9773C45.5166 44.8636 45.8235 46.4583 46.4371 47.7614C47.0507 49.0644 47.8916 50.053 48.9598 50.7273C50.028 51.4015 51.2439 51.7386 52.6076 51.7386C53.8727 51.7386 54.975 51.4811 55.9144 50.9659C56.8613 50.4508 57.5924 49.7235 58.1076 48.7841C58.6303 47.8371 58.8916 46.7235 58.8916 45.4432L59.8007 45.6136H53.1416V42.7159H62.2894V45.3636C62.2894 47.3182 61.8727 49.0152 61.0394 50.4545C60.2136 51.8864 59.0697 52.9924 57.6076 53.7727C56.153 54.553 54.4863 54.9432 52.6076 54.9432C50.5015 54.9432 48.653 54.4583 47.0621 53.4886C45.4788 52.5189 44.2439 51.1439 43.3576 49.3636C42.4712 47.5758 42.028 45.4545 42.028 43C42.028 41.1439 42.2856 39.4773 42.8007 38C43.3159 36.5227 44.0394 35.2689 44.9712 34.2386C45.9106 33.2008 47.0129 32.4091 48.278 31.8636C49.5507 31.3106 50.9409 31.0341 52.4485 31.0341C53.706 31.0341 54.8765 31.2197 55.9598 31.5909C57.0507 31.9621 58.0204 32.4886 58.8689 33.1705C59.725 33.8523 60.4333 34.6629 60.9939 35.6023C61.5545 36.5341 61.9333 37.5682 62.1303 38.7045H58.528ZM71.5536 55.0114C70.4475 55.0114 69.4475 54.8068 68.5536 54.3977C67.6596 53.9811 66.9513 53.3788 66.4286 52.5909C65.9134 51.803 65.6559 50.8371 65.6559 49.6932C65.6559 48.7083 65.8452 47.8977 66.224 47.2614C66.6028 46.625 67.1142 46.1212 67.7581 45.75C68.4021 45.3788 69.1218 45.0985 69.9172 44.9091C70.7127 44.7197 71.5233 44.5758 72.349 44.4773C73.3945 44.3561 74.243 44.2576 74.8945 44.1818C75.546 44.0985 76.0195 43.9659 76.3149 43.7841C76.6104 43.6023 76.7581 43.3068 76.7581 42.8977V42.8182C76.7581 41.8258 76.4778 41.0568 75.9172 40.5114C75.3642 39.9659 74.5384 39.6932 73.4399 39.6932C72.296 39.6932 71.3945 39.947 70.7354 40.4545C70.0839 40.9545 69.6331 41.5114 69.3831 42.125L66.1899 41.3977C66.5687 40.3371 67.1218 39.4811 67.849 38.8295C68.5839 38.1705 69.4286 37.6932 70.3831 37.3977C71.3377 37.0947 72.3415 36.9432 73.3945 36.9432C74.0915 36.9432 74.8301 37.0265 75.6104 37.1932C76.3983 37.3523 77.1331 37.6477 77.8149 38.0795C78.5043 38.5114 79.0687 39.1288 79.5081 39.9318C79.9475 40.7273 80.1672 41.7614 80.1672 43.0341V54.625H76.849V52.2386H76.7127C76.493 52.678 76.1634 53.1098 75.724 53.5341C75.2846 53.9583 74.7202 54.3106 74.0309 54.5909C73.3415 54.8712 72.5157 55.0114 71.5536 55.0114ZM72.2922 52.2841C73.2316 52.2841 74.0346 52.0985 74.7013 51.7273C75.3755 51.3561 75.8869 50.8712 76.2354 50.2727C76.5915 49.6667 76.7695 49.0189 76.7695 48.3295V46.0795C76.6483 46.2008 76.4134 46.3144 76.0649 46.4205C75.724 46.5189 75.3339 46.6061 74.8945 46.6818C74.4551 46.75 74.0271 46.8144 73.6104 46.875C73.1937 46.928 72.8452 46.9735 72.5649 47.0114C71.9059 47.0947 71.3036 47.2348 70.7581 47.4318C70.2202 47.6288 69.7884 47.9129 69.4627 48.2841C69.1445 48.6477 68.9854 49.1326 68.9854 49.7386C68.9854 50.5795 69.296 51.2159 69.9172 51.6477C70.5384 52.072 71.3301 52.2841 72.2922 52.2841ZM84.6928 54.625V37.1705H88.0905V54.625H84.6928ZM86.4087 34.4773C85.8178 34.4773 85.3102 34.2803 84.886 33.8864C84.4693 33.4848 84.261 33.0076 84.261 32.4545C84.261 31.8939 84.4693 31.4167 84.886 31.0227C85.3102 30.6212 85.8178 30.4205 86.4087 30.4205C86.9996 30.4205 87.5034 30.6212 87.9201 31.0227C88.3443 31.4167 88.5564 31.8939 88.5564 32.4545C88.5564 33.0076 88.3443 33.4848 87.9201 33.8864C87.5034 34.2803 86.9996 34.4773 86.4087 34.4773ZM96.0593 44.2614V54.625H92.6615V37.1705H95.9229V40.0114H96.1388C96.5403 39.0871 97.1691 38.3447 98.0252 37.7841C98.8888 37.2235 99.9759 36.9432 101.287 36.9432C102.476 36.9432 103.518 37.1932 104.412 37.6932C105.305 38.1856 105.999 38.9205 106.491 39.8977C106.984 40.875 107.23 42.0833 107.23 43.5227V54.625H103.832V43.9318C103.832 42.6667 103.502 41.678 102.843 40.9659C102.184 40.2462 101.279 39.8864 100.127 39.8864C99.3396 39.8864 98.6388 40.0568 98.0252 40.3977C97.4191 40.7386 96.938 41.2386 96.582 41.8977C96.2335 42.5492 96.0593 43.3371 96.0593 44.2614ZM46.2894 70.3523V93.625H42.778V70.3523H46.2894ZM54.528 83.2614V93.625H51.1303V76.1705H54.3916V79.0114H54.6076C55.0091 78.0871 55.6379 77.3447 56.4939 76.7841C57.3576 76.2235 58.4447 75.9432 59.7553 75.9432C60.9447 75.9432 61.9863 76.1932 62.8803 76.6932C63.7742 77.1856 64.4674 77.9205 64.9598 78.8977C65.4523 79.875 65.6985 81.0833 65.6985 82.5227V93.625H62.3007V82.9318C62.3007 81.6667 61.9712 80.678 61.3121 79.9659C60.653 79.2462 59.7477 78.8864 58.5962 78.8864C57.8083 78.8864 57.1076 79.0568 56.4939 79.3977C55.8879 79.7386 55.4068 80.2386 55.0507 80.8977C54.7023 81.5492 54.528 82.3371 54.528 83.2614ZM83.3348 80.4318L80.2553 80.9773C80.1265 80.5833 79.9219 80.2083 79.6416 79.8523C79.3689 79.4962 78.9977 79.2045 78.528 78.9773C78.0583 78.75 77.4712 78.6364 76.7666 78.6364C75.8045 78.6364 75.0015 78.8523 74.3576 79.2841C73.7136 79.7083 73.3916 80.2576 73.3916 80.9318C73.3916 81.5152 73.6076 81.9848 74.0394 82.3409C74.4712 82.697 75.1682 82.9886 76.1303 83.2159L78.903 83.8523C80.5091 84.2235 81.706 84.7955 82.4939 85.5682C83.2818 86.3409 83.6757 87.3447 83.6757 88.5795C83.6757 89.625 83.3727 90.5568 82.7666 91.375C82.1682 92.1856 81.331 92.822 80.2553 93.2841C79.1871 93.7462 77.9485 93.9773 76.5394 93.9773C74.5848 93.9773 72.9901 93.5606 71.7553 92.7273C70.5204 91.8864 69.7629 90.6932 69.4826 89.1477L72.7666 88.6477C72.9712 89.5038 73.3916 90.1515 74.028 90.5909C74.6644 91.0227 75.4939 91.2386 76.5166 91.2386C77.6303 91.2386 78.5204 91.0076 79.1871 90.5455C79.8538 90.0758 80.1871 89.5038 80.1871 88.8295C80.1871 88.2841 79.9826 87.8258 79.5735 87.4545C79.1719 87.0833 78.5545 86.803 77.7212 86.6136L74.7666 85.9659C73.1379 85.5947 71.9333 85.0038 71.153 84.1932C70.3803 83.3826 69.9939 82.3561 69.9939 81.1136C69.9939 80.0833 70.2818 79.1818 70.8576 78.4091C71.4333 77.6364 72.2288 77.0341 73.2439 76.6023C74.2591 76.1629 75.4219 75.9432 76.7326 75.9432C78.6189 75.9432 80.1038 76.3523 81.1871 77.1705C82.2704 77.9811 82.9863 79.0682 83.3348 80.4318ZM87.4115 93.625V76.1705H90.8093V93.625H87.4115ZM89.1274 73.4773C88.5365 73.4773 88.029 73.2803 87.6047 72.8864C87.188 72.4848 86.9797 72.0076 86.9797 71.4545C86.9797 70.8939 87.188 70.4167 87.6047 70.0227C88.029 69.6212 88.5365 69.4205 89.1274 69.4205C89.7184 69.4205 90.2221 69.6212 90.6388 70.0227C91.063 70.4167 91.2752 70.8939 91.2752 71.4545C91.2752 72.0076 91.063 72.4848 90.6388 72.8864C90.2221 73.2803 89.7184 73.4773 89.1274 73.4773ZM102.698 100.534C101.312 100.534 100.119 100.352 99.1189 99.9886C98.1265 99.625 97.3159 99.1439 96.6871 98.5455C96.0583 97.947 95.5886 97.2917 95.278 96.5795L98.1985 95.375C98.403 95.7083 98.6757 96.0606 99.0166 96.4318C99.3651 96.8106 99.8348 97.1326 100.426 97.3977C101.024 97.6629 101.793 97.7955 102.733 97.7955C104.02 97.7955 105.085 97.4811 105.926 96.8523C106.767 96.2311 107.187 95.2386 107.187 93.875V90.4432H106.971C106.767 90.8144 106.471 91.2273 106.085 91.6818C105.706 92.1364 105.183 92.5303 104.517 92.8636C103.85 93.197 102.983 93.3636 101.914 93.3636C100.536 93.3636 99.2932 93.0417 98.1871 92.3977C97.0886 91.7462 96.2174 90.7879 95.5735 89.5227C94.9371 88.25 94.6189 86.6856 94.6189 84.8295C94.6189 82.9735 94.9333 81.3826 95.5621 80.0568C96.1985 78.7311 97.0697 77.7159 98.1757 77.0114C99.2818 76.2992 100.536 75.9432 101.937 75.9432C103.02 75.9432 103.895 76.125 104.562 76.4886C105.229 76.8447 105.748 77.2614 106.119 77.7386C106.498 78.2159 106.789 78.6364 106.994 79H107.244V76.1705H110.573V94.0114C110.573 95.5114 110.225 96.7424 109.528 97.7045C108.831 98.6667 107.888 99.3788 106.698 99.8409C105.517 100.303 104.183 100.534 102.698 100.534ZM102.664 90.5455C103.642 90.5455 104.467 90.3182 105.142 89.8636C105.823 89.4015 106.339 88.7424 106.687 87.8864C107.043 87.0227 107.221 85.9886 107.221 84.7841C107.221 83.6098 107.047 82.5758 106.698 81.6818C106.35 80.7879 105.839 80.0909 105.164 79.5909C104.49 79.0833 103.657 78.8295 102.664 78.8295C101.642 78.8295 100.789 79.0947 100.108 79.625C99.4257 80.1477 98.9106 80.8598 98.5621 81.7614C98.2212 82.6629 98.0507 83.6705 98.0507 84.7841C98.0507 85.928 98.225 86.9318 98.5735 87.7955C98.9219 88.6591 99.4371 89.3333 100.119 89.8182C100.808 90.303 101.657 90.5455 102.664 90.5455ZM118.528 83.2614V93.625H115.13V70.3523H118.483V79.0114H118.698C119.108 78.072 119.733 77.3258 120.573 76.7727C121.414 76.2197 122.513 75.9432 123.869 75.9432C125.066 75.9432 126.111 76.1894 127.005 76.6818C127.907 77.1742 128.604 77.9091 129.096 78.8864C129.596 79.8561 129.846 81.0682 129.846 82.5227V93.625H126.448V82.9318C126.448 81.6515 126.119 80.6591 125.46 79.9545C124.801 79.2424 123.884 78.8864 122.71 78.8864C121.907 78.8864 121.187 79.0568 120.551 79.3977C119.922 79.7386 119.426 80.2386 119.062 80.8977C118.706 81.5492 118.528 82.3371 118.528 83.2614ZM142.528 76.1705V78.8977H132.994V76.1705H142.528ZM135.551 71.9886H138.948V88.5C138.948 89.1591 139.047 89.6553 139.244 89.9886C139.441 90.3144 139.695 90.5379 140.005 90.6591C140.323 90.7727 140.668 90.8295 141.039 90.8295C141.312 90.8295 141.551 90.8106 141.755 90.7727C141.96 90.7348 142.119 90.7045 142.233 90.6818L142.846 93.4886C142.649 93.5644 142.369 93.6402 142.005 93.7159C141.642 93.7992 141.187 93.8447 140.642 93.8523C139.748 93.8674 138.914 93.7083 138.142 93.375C137.369 93.0417 136.744 92.5265 136.267 91.8295C135.789 91.1326 135.551 90.2576 135.551 89.2045V71.9886ZM159.085 80.4318L156.005 80.9773C155.876 80.5833 155.672 80.2083 155.392 79.8523C155.119 79.4962 154.748 79.2045 154.278 78.9773C153.808 78.75 153.221 78.6364 152.517 78.6364C151.555 78.6364 150.751 78.8523 150.108 79.2841C149.464 79.7083 149.142 80.2576 149.142 80.9318C149.142 81.5152 149.358 81.9848 149.789 82.3409C150.221 82.697 150.918 82.9886 151.88 83.2159L154.653 83.8523C156.259 84.2235 157.456 84.7955 158.244 85.5682C159.032 86.3409 159.426 87.3447 159.426 88.5795C159.426 89.625 159.123 90.5568 158.517 91.375C157.918 92.1856 157.081 92.822 156.005 93.2841C154.937 93.7462 153.698 93.9773 152.289 93.9773C150.335 93.9773 148.74 93.5606 147.505 92.7273C146.27 91.8864 145.513 90.6932 145.233 89.1477L148.517 88.6477C148.721 89.5038 149.142 90.1515 149.778 90.5909C150.414 91.0227 151.244 91.2386 152.267 91.2386C153.38 91.2386 154.27 91.0076 154.937 90.5455C155.604 90.0758 155.937 89.5038 155.937 88.8295C155.937 88.2841 155.733 87.8258 155.323 87.4545C154.922 87.0833 154.305 86.803 153.471 86.6136L150.517 85.9659C148.888 85.5947 147.683 85.0038 146.903 84.1932C146.13 83.3826 145.744 82.3561 145.744 81.1136C145.744 80.0833 146.032 79.1818 146.608 78.4091C147.183 77.6364 147.979 77.0341 148.994 76.6023C150.009 76.1629 151.172 75.9432 152.483 75.9432C154.369 75.9432 155.854 76.3523 156.937 77.1705C158.02 77.9811 158.736 79.0682 159.085 80.4318Z" fill="black"/>
<path d="M288.68 63V51.8H293.048C294.029 51.8 294.867 51.9547 295.56 52.264C296.253 52.5733 296.787 53.0213 297.16 53.608C297.533 54.1947 297.72 54.8933 297.72 55.704C297.72 56.5147 297.533 57.2133 297.16 57.8C296.787 58.376 296.253 58.8187 295.56 59.128C294.867 59.4373 294.029 59.592 293.048 59.592H289.56L290.28 58.856V63H288.68ZM296.168 63L293.32 58.936H295.032L297.912 63H296.168ZM290.28 59.016L289.56 58.232H293C294.024 58.232 294.797 58.0133 295.32 57.576C295.853 57.128 296.12 56.504 296.12 55.704C296.12 54.904 295.853 54.2853 295.32 53.848C294.797 53.4107 294.024 53.192 293 53.192H289.56L290.28 52.392V59.016ZM303.857 63.096C302.95 63.096 302.15 62.9093 301.457 62.536C300.774 62.1627 300.241 61.6507 299.857 61C299.484 60.3493 299.297 59.6027 299.297 58.76C299.297 57.9173 299.478 57.1707 299.841 56.52C300.214 55.8693 300.721 55.3627 301.361 55C302.012 54.6267 302.742 54.44 303.553 54.44C304.374 54.44 305.1 54.6213 305.729 54.984C306.358 55.3467 306.849 55.8587 307.201 56.52C307.564 57.1707 307.745 57.9333 307.745 58.808C307.745 58.872 307.74 58.9467 307.729 59.032C307.729 59.1173 307.724 59.1973 307.713 59.272H300.497V58.168H306.913L306.289 58.552C306.3 58.008 306.188 57.5227 305.953 57.096C305.718 56.6693 305.393 56.3387 304.977 56.104C304.572 55.8587 304.097 55.736 303.553 55.736C303.02 55.736 302.545 55.8587 302.129 56.104C301.713 56.3387 301.388 56.6747 301.153 57.112C300.918 57.5387 300.801 58.0293 300.801 58.584V58.84C300.801 59.4053 300.929 59.912 301.185 60.36C301.452 60.7973 301.82 61.1387 302.289 61.384C302.758 61.6293 303.297 61.752 303.905 61.752C304.406 61.752 304.86 61.6667 305.265 61.496C305.681 61.3253 306.044 61.0693 306.353 60.728L307.201 61.72C306.817 62.168 306.337 62.5093 305.761 62.744C305.196 62.9787 304.561 63.096 303.857 63.096ZM314.908 63V61.208L314.828 60.872V57.816C314.828 57.1653 314.636 56.664 314.252 56.312C313.878 55.9493 313.313 55.768 312.556 55.768C312.054 55.768 311.564 55.8533 311.084 56.024C310.604 56.184 310.198 56.4027 309.868 56.68L309.228 55.528C309.665 55.176 310.188 54.9093 310.796 54.728C311.414 54.536 312.06 54.44 312.732 54.44C313.894 54.44 314.79 54.7227 315.42 55.288C316.049 55.8533 316.364 56.7173 316.364 57.88V63H314.908ZM312.124 63.096C311.494 63.096 310.94 62.9893 310.46 62.776C309.99 62.5627 309.628 62.2693 309.372 61.896C309.116 61.512 308.988 61.08 308.988 60.6C308.988 60.1413 309.094 59.7253 309.308 59.352C309.532 58.9787 309.889 58.68 310.38 58.456C310.881 58.232 311.553 58.12 312.396 58.12H315.084V59.224H312.46C311.692 59.224 311.174 59.352 310.908 59.608C310.641 59.864 310.508 60.1733 310.508 60.536C310.508 60.952 310.673 61.288 311.004 61.544C311.334 61.7893 311.793 61.912 312.38 61.912C312.956 61.912 313.457 61.784 313.884 61.528C314.321 61.272 314.636 60.8987 314.828 60.408L315.132 61.464C314.929 61.9653 314.572 62.3653 314.06 62.664C313.548 62.952 312.902 63.096 312.124 63.096ZM319.206 63V51.128H320.742V63H319.206ZM330.42 63V53.192H326.58V51.8H335.844V53.192H332.004V63H330.42ZM337.362 63V54.52H338.898V63H337.362ZM338.13 52.888C337.832 52.888 337.581 52.792 337.378 52.6C337.186 52.408 337.09 52.1733 337.09 51.896C337.09 51.608 337.186 51.368 337.378 51.176C337.581 50.984 337.832 50.888 338.13 50.888C338.429 50.888 338.674 50.984 338.866 51.176C339.069 51.3573 339.17 51.5867 339.17 51.864C339.17 52.152 339.074 52.3973 338.882 52.6C338.69 52.792 338.44 52.888 338.13 52.888ZM352.439 54.44C353.122 54.44 353.724 54.5733 354.247 54.84C354.77 55.1067 355.175 55.512 355.463 56.056C355.762 56.6 355.911 57.288 355.911 58.12V63H354.375V58.296C354.375 57.4747 354.183 56.856 353.799 56.44C353.415 56.024 352.876 55.816 352.183 55.816C351.671 55.816 351.223 55.9227 350.839 56.136C350.455 56.3493 350.156 56.664 349.943 57.08C349.74 57.496 349.639 58.0133 349.639 58.632V63H348.103V58.296C348.103 57.4747 347.911 56.856 347.527 56.44C347.154 56.024 346.615 55.816 345.911 55.816C345.41 55.816 344.967 55.9227 344.583 56.136C344.199 56.3493 343.9 56.664 343.687 57.08C343.474 57.496 343.367 58.0133 343.367 58.632V63H341.831V54.52H343.303V56.776L343.063 56.2C343.33 55.6453 343.74 55.2133 344.295 54.904C344.85 54.5947 345.495 54.44 346.231 54.44C347.042 54.44 347.74 54.6427 348.327 55.048C348.914 55.4427 349.298 56.0453 349.479 56.856L348.855 56.6C349.111 55.9493 349.559 55.4267 350.199 55.032C350.839 54.6373 351.586 54.44 352.439 54.44ZM362.513 63.096C361.607 63.096 360.807 62.9093 360.113 62.536C359.431 62.1627 358.897 61.6507 358.513 61C358.14 60.3493 357.953 59.6027 357.953 58.76C357.953 57.9173 358.135 57.1707 358.497 56.52C358.871 55.8693 359.377 55.3627 360.017 55C360.668 54.6267 361.399 54.44 362.209 54.44C363.031 54.44 363.756 54.6213 364.385 54.984C365.015 55.3467 365.505 55.8587 365.857 56.52C366.22 57.1707 366.401 57.9333 366.401 58.808C366.401 58.872 366.396 58.9467 366.385 59.032C366.385 59.1173 366.38 59.1973 366.369 59.272H359.153V58.168H365.569L364.945 58.552C364.956 58.008 364.844 57.5227 364.609 57.096C364.375 56.6693 364.049 56.3387 363.633 56.104C363.228 55.8587 362.753 55.736 362.209 55.736C361.676 55.736 361.201 55.8587 360.785 56.104C360.369 56.3387 360.044 56.6747 359.809 57.112C359.575 57.5387 359.457 58.0293 359.457 58.584V58.84C359.457 59.4053 359.585 59.912 359.841 60.36C360.108 60.7973 360.476 61.1387 360.945 61.384C361.415 61.6293 361.953 61.752 362.561 61.752C363.063 61.752 363.516 61.6667 363.921 61.496C364.337 61.3253 364.7 61.0693 365.009 60.728L365.857 61.72C365.473 62.168 364.993 62.5093 364.417 62.744C363.852 62.9787 363.217 63.096 362.513 63.096ZM293.32 83.128C291.848 83.128 290.691 82.7067 289.848 81.864C289.005 81.0213 288.584 79.7893 288.584 78.168V71.8H290.184V78.104C290.184 79.352 290.456 80.264 291 80.84C291.555 81.416 292.333 81.704 293.336 81.704C294.349 81.704 295.128 81.416 295.672 80.84C296.227 80.264 296.504 79.352 296.504 78.104V71.8H298.056V78.168C298.056 79.7893 297.635 81.0213 296.792 81.864C295.96 82.7067 294.803 83.128 293.32 83.128ZM305.608 83.096C304.904 83.096 304.259 82.936 303.672 82.616C303.096 82.2853 302.632 81.8 302.28 81.16C301.939 80.52 301.768 79.72 301.768 78.76C301.768 77.8 301.934 77 302.264 76.36C302.606 75.72 303.064 75.24 303.64 74.92C304.227 74.6 304.883 74.44 305.608 74.44C306.44 74.44 307.176 74.6213 307.816 74.984C308.456 75.3467 308.963 75.8533 309.336 76.504C309.71 77.144 309.896 77.896 309.896 78.76C309.896 79.624 309.71 80.3813 309.336 81.032C308.963 81.6827 308.456 82.1893 307.816 82.552C307.176 82.9147 306.44 83.096 305.608 83.096ZM301.112 86.104V74.52H302.584V76.808L302.488 78.776L302.648 80.744V86.104H301.112ZM305.48 81.752C306.024 81.752 306.51 81.6293 306.936 81.384C307.374 81.1387 307.715 80.792 307.96 80.344C308.216 79.8853 308.344 79.3573 308.344 78.76C308.344 78.152 308.216 77.6293 307.96 77.192C307.715 76.744 307.374 76.3973 306.936 76.152C306.51 75.9067 306.024 75.784 305.48 75.784C304.947 75.784 304.462 75.9067 304.024 76.152C303.598 76.3973 303.256 76.744 303 77.192C302.755 77.6293 302.632 78.152 302.632 78.76C302.632 79.3573 302.755 79.8853 303 80.344C303.256 80.792 303.598 81.1387 304.024 81.384C304.462 81.6293 304.947 81.752 305.48 81.752ZM315.523 83.096C314.701 83.096 313.965 82.9147 313.315 82.552C312.675 82.1893 312.168 81.6827 311.795 81.032C311.421 80.3813 311.235 79.624 311.235 78.76C311.235 77.896 311.421 77.144 311.795 76.504C312.168 75.8533 312.675 75.3467 313.315 74.984C313.965 74.6213 314.701 74.44 315.523 74.44C316.237 74.44 316.883 74.6 317.459 74.92C318.035 75.24 318.493 75.72 318.835 76.36C319.187 77 319.363 77.8 319.363 78.76C319.363 79.72 319.192 80.52 318.851 81.16C318.52 81.8 318.067 82.2853 317.491 82.616C316.915 82.936 316.259 83.096 315.523 83.096ZM315.651 81.752C316.184 81.752 316.664 81.6293 317.091 81.384C317.528 81.1387 317.869 80.792 318.115 80.344C318.371 79.8853 318.499 79.3573 318.499 78.76C318.499 78.152 318.371 77.6293 318.115 77.192C317.869 76.744 317.528 76.3973 317.091 76.152C316.664 75.9067 316.184 75.784 315.651 75.784C315.107 75.784 314.621 75.9067 314.195 76.152C313.768 76.3973 313.427 76.744 313.171 77.192C312.915 77.6293 312.787 78.152 312.787 78.76C312.787 79.3573 312.915 79.8853 313.171 80.344C313.427 80.792 313.768 81.1387 314.195 81.384C314.621 81.6293 315.107 81.752 315.651 81.752ZM318.547 83V80.712L318.642 78.744L318.483 76.776V71.128H320.019V83H318.547ZM328.189 83V81.208L328.109 80.872V77.816C328.109 77.1653 327.917 76.664 327.533 76.312C327.159 75.9493 326.594 75.768 325.837 75.768C325.335 75.768 324.845 75.8533 324.365 76.024C323.885 76.184 323.479 76.4027 323.149 76.68L322.509 75.528C322.946 75.176 323.469 74.9093 324.077 74.728C324.695 74.536 325.341 74.44 326.013 74.44C327.175 74.44 328.071 74.7227 328.701 75.288C329.33 75.8533 329.645 76.7173 329.645 77.88V83H328.189ZM325.405 83.096C324.775 83.096 324.221 82.9893 323.741 82.776C323.271 82.5627 322.909 82.2693 322.653 81.896C322.397 81.512 322.269 81.08 322.269 80.6C322.269 80.1413 322.375 79.7253 322.589 79.352C322.813 78.9787 323.17 78.68 323.661 78.456C324.162 78.232 324.834 78.12 325.677 78.12H328.365V79.224H325.741C324.973 79.224 324.455 79.352 324.189 79.608C323.922 79.864 323.789 80.1733 323.789 80.536C323.789 80.952 323.954 81.288 324.285 81.544C324.615 81.7893 325.074 81.912 325.661 81.912C326.237 81.912 326.738 81.784 327.165 81.528C327.602 81.272 327.917 80.8987 328.109 80.408L328.413 81.464C328.21 81.9653 327.853 82.3653 327.341 82.664C326.829 82.952 326.183 83.096 325.405 83.096ZM335.399 83.096C334.546 83.096 333.885 82.8667 333.415 82.408C332.946 81.9493 332.711 81.2933 332.711 80.44V72.664H334.247V80.376C334.247 80.8347 334.359 81.1867 334.583 81.432C334.818 81.6773 335.149 81.8 335.575 81.8C336.055 81.8 336.455 81.6667 336.775 81.4L337.255 82.504C337.021 82.7067 336.738 82.856 336.407 82.952C336.087 83.048 335.751 83.096 335.399 83.096ZM331.271 75.784V74.52H336.679V75.784H331.271ZM342.607 83.096C341.7 83.096 340.9 82.9093 340.207 82.536C339.524 82.1627 338.991 81.6507 338.607 81C338.234 80.3493 338.047 79.6027 338.047 78.76C338.047 77.9173 338.228 77.1707 338.591 76.52C338.964 75.8693 339.471 75.3627 340.111 75C340.762 74.6267 341.492 74.44 342.303 74.44C343.124 74.44 343.85 74.6213 344.479 74.984C345.108 75.3467 345.599 75.8587 345.951 76.52C346.314 77.1707 346.495 77.9333 346.495 78.808C346.495 78.872 346.49 78.9467 346.479 79.032C346.479 79.1173 346.474 79.1973 346.463 79.272H339.247V78.168H345.663L345.039 78.552C345.05 78.008 344.938 77.5227 344.703 77.096C344.468 76.6693 344.143 76.3387 343.727 76.104C343.322 75.8587 342.847 75.736 342.303 75.736C341.77 75.736 341.295 75.8587 340.879 76.104C340.463 76.3387 340.138 76.6747 339.903 77.112C339.668 77.5387 339.551 78.0293 339.551 78.584V78.84C339.551 79.4053 339.679 79.912 339.935 80.36C340.202 80.7973 340.57 81.1387 341.039 81.384C341.508 81.6293 342.047 81.752 342.655 81.752C343.156 81.752 343.61 81.6667 344.015 81.496C344.431 81.3253 344.794 81.0693 345.103 80.728L345.951 81.72C345.567 82.168 345.087 82.5093 344.511 82.744C343.946 82.9787 343.311 83.096 342.607 83.096ZM351.06 83.096C350.356 83.096 349.684 83 349.044 82.808C348.415 82.616 347.919 82.3813 347.556 82.104L348.196 80.888C348.559 81.1333 349.007 81.3413 349.54 81.512C350.073 81.6827 350.617 81.768 351.172 81.768C351.887 81.768 352.399 81.6667 352.708 81.464C353.028 81.2613 353.188 80.9787 353.188 80.616C353.188 80.3493 353.092 80.1413 352.9 79.992C352.708 79.8427 352.452 79.7307 352.132 79.656C351.823 79.5813 351.476 79.5173 351.092 79.464C350.708 79.4 350.324 79.3253 349.94 79.24C349.556 79.144 349.204 79.016 348.884 78.856C348.564 78.6853 348.308 78.456 348.116 78.168C347.924 77.8693 347.828 77.4747 347.828 76.984C347.828 76.472 347.972 76.024 348.26 75.64C348.548 75.256 348.953 74.9627 349.476 74.76C350.009 74.5467 350.639 74.44 351.364 74.44C351.919 74.44 352.479 74.5093 353.044 74.648C353.62 74.776 354.089 74.9627 354.452 75.208L353.796 76.424C353.412 76.168 353.012 75.992 352.596 75.896C352.18 75.8 351.764 75.752 351.348 75.752C350.676 75.752 350.175 75.864 349.844 76.088C349.513 76.3013 349.348 76.5787 349.348 76.92C349.348 77.208 349.444 77.432 349.636 77.592C349.839 77.7413 350.095 77.8587 350.404 77.944C350.724 78.0293 351.076 78.104 351.46 78.168C351.844 78.2213 352.228 78.296 352.612 78.392C352.996 78.4773 353.343 78.6 353.652 78.76C353.972 78.92 354.228 79.144 354.42 79.432C354.623 79.72 354.724 80.104 354.724 80.584C354.724 81.096 354.575 81.5387 354.276 81.912C353.977 82.2853 353.556 82.5787 353.012 82.792C352.468 82.9947 351.817 83.096 351.06 83.096Z" fill="black"/>
<path d="M391.97 76.1864C390.242 76.1864 388.49 75.9944 386.714 75.6104C384.938 75.2264 383.378 74.6624 382.034 73.9184L384.914 67.6544C385.994 68.2784 387.122 68.7464 388.298 69.0584C389.474 69.3464 390.59 69.4904 391.646 69.4904C392.606 69.4904 393.398 69.3224 394.022 68.9864C394.646 68.6504 394.958 68.1584 394.958 67.5104C394.958 67.1504 394.85 66.8384 394.634 66.5744C394.418 66.2864 394.034 66.0704 393.482 65.9264C392.954 65.7824 392.174 65.7104 391.142 65.7104H383.834L385.094 50.4103H401.834V56.8184H388.082L392.366 53.1824L391.61 62.9384L387.326 59.3024H393.194C395.69 59.3024 397.682 59.6624 399.17 60.3824C400.682 61.1024 401.774 62.0744 402.446 63.2984C403.142 64.4984 403.49 65.8424 403.49 67.3304C403.49 68.8184 403.082 70.2464 402.266 71.6144C401.474 72.9584 400.226 74.0624 398.522 74.9264C396.842 75.7664 394.658 76.1864 391.97 76.1864ZM408.652 75.6104L425.86 50.4103H431.944L414.736 75.6104H408.652ZM411.064 64.0904C409.792 64.0904 408.652 63.8264 407.644 63.2984C406.636 62.7464 405.832 61.9424 405.232 60.8864C404.656 59.8304 404.368 58.5584 404.368 57.0703C404.368 55.5824 404.656 54.3224 405.232 53.2904C405.832 52.2344 406.636 51.4304 407.644 50.8784C408.652 50.3264 409.792 50.0504 411.064 50.0504C412.336 50.0504 413.476 50.3264 414.484 50.8784C415.492 51.4304 416.284 52.2344 416.86 53.2904C417.46 54.3224 417.76 55.5824 417.76 57.0703C417.76 58.5584 417.46 59.8304 416.86 60.8864C416.284 61.9424 415.492 62.7464 414.484 63.2984C413.476 63.8264 412.336 64.0904 411.064 64.0904ZM411.064 60.2024C411.472 60.2024 411.832 59.9864 412.144 59.5544C412.48 59.0984 412.648 58.2704 412.648 57.0703C412.648 55.8704 412.48 55.0544 412.144 54.6224C411.832 54.1664 411.472 53.9383 411.064 53.9383C410.68 53.9383 410.32 54.1664 409.984 54.6224C409.648 55.0544 409.48 55.8704 409.48 57.0703C409.48 58.2704 409.648 59.0984 409.984 59.5544C410.32 59.9864 410.68 60.2024 411.064 60.2024ZM429.532 75.9704C428.26 75.9704 427.12 75.7064 426.112 75.1784C425.104 74.6264 424.3 73.8224 423.7 72.7664C423.124 71.7104 422.836 70.4384 422.836 68.9504C422.836 67.4624 423.124 66.2024 423.7 65.1704C424.3 64.1144 425.104 63.3104 426.112 62.7584C427.12 62.2064 428.26 61.9304 429.532 61.9304C430.804 61.9304 431.944 62.2064 432.952 62.7584C433.96 63.3104 434.752 64.1144 435.328 65.1704C435.928 66.2024 436.228 67.4624 436.228 68.9504C436.228 70.4384 435.928 71.7104 435.328 72.7664C434.752 73.8224 433.96 74.6264 432.952 75.1784C431.944 75.7064 430.804 75.9704 429.532 75.9704ZM429.532 72.0824C429.94 72.0824 430.3 71.8664 430.612 71.4344C430.948 70.9784 431.116 70.1504 431.116 68.9504C431.116 67.7504 430.948 66.9344 430.612 66.5024C430.3 66.0464 429.94 65.8184 429.532 65.8184C429.148 65.8184 428.788 66.0464 428.452 66.5024C428.116 66.9344 427.948 67.7504 427.948 68.9504C427.948 70.1504 428.116 70.9784 428.452 71.4344C428.788 71.8664 429.148 72.0824 429.532 72.0824Z" fill="#1DD1E3"/>
<path d="M38.5876 317.525C37.9316 317.525 37.3436 317.357 36.8236 317.021C36.3116 316.685 35.9036 316.197 35.5996 315.557C35.3036 314.917 35.1556 314.141 35.1556 313.229C35.1556 312.317 35.3036 311.541 35.5996 310.901C35.9036 310.261 36.3116 309.773 36.8236 309.437C37.3436 309.101 37.9316 308.933 38.5876 308.933C39.2356 308.933 39.8196 309.101 40.3396 309.437C40.8596 309.773 41.2676 310.261 41.5636 310.901C41.8596 311.541 42.0076 312.317 42.0076 313.229C42.0076 314.141 41.8596 314.917 41.5636 315.557C41.2676 316.197 40.8596 316.685 40.3396 317.021C39.8196 317.357 39.2356 317.525 38.5876 317.525ZM38.5876 316.457C39.0276 316.457 39.4116 316.337 39.7396 316.097C40.0756 315.857 40.3356 315.497 40.5196 315.017C40.7116 314.537 40.8076 313.941 40.8076 313.229C40.8076 312.517 40.7116 311.921 40.5196 311.441C40.3356 310.961 40.0756 310.601 39.7396 310.361C39.4116 310.121 39.0276 310.001 38.5876 310.001C38.1476 310.001 37.7596 310.121 37.4236 310.361C37.0876 310.601 36.8236 310.961 36.6316 311.441C36.4476 311.921 36.3556 312.517 36.3556 313.229C36.3556 313.941 36.4476 314.537 36.6316 315.017C36.8236 315.497 37.0876 315.857 37.4236 316.097C37.7596 316.337 38.1476 316.457 38.5876 316.457ZM44.5755 317.429V309.509L45.0915 310.073H42.6795V309.029H45.7635V317.429H44.5755Z" fill="black"/>
<path d="M500.821 317.525C500.165 317.525 499.577 317.357 499.057 317.021C498.545 316.685 498.137 316.197 497.833 315.557C497.537 314.917 497.389 314.141 497.389 313.229C497.389 312.317 497.537 311.541 497.833 310.901C498.137 310.261 498.545 309.773 499.057 309.437C499.577 309.101 500.165 308.933 500.821 308.933C501.469 308.933 502.053 309.101 502.573 309.437C503.093 309.773 503.501 310.261 503.797 310.901C504.093 311.541 504.241 312.317 504.241 313.229C504.241 314.141 504.093 314.917 503.797 315.557C503.501 316.197 503.093 316.685 502.573 317.021C502.053 317.357 501.469 317.525 500.821 317.525ZM500.821 316.457C501.261 316.457 501.645 316.337 501.973 316.097C502.309 315.857 502.569 315.497 502.753 315.017C502.945 314.537 503.041 313.941 503.041 313.229C503.041 312.517 502.945 311.921 502.753 311.441C502.569 310.961 502.309 310.601 501.973 310.361C501.645 310.121 501.261 310.001 500.821 310.001C500.381 310.001 499.993 310.121 499.657 310.361C499.321 310.601 499.057 310.961 498.865 311.441C498.681 311.921 498.589 312.517 498.589 313.229C498.589 313.941 498.681 314.537 498.865 315.017C499.057 315.497 499.321 315.857 499.657 316.097C499.993 316.337 500.381 316.457 500.821 316.457ZM505.261 317.429V316.613L508.681 313.313C508.985 313.025 509.209 312.773 509.353 312.557C509.505 312.333 509.605 312.129 509.653 311.945C509.709 311.753 509.737 311.569 509.737 311.393C509.737 310.961 509.585 310.621 509.281 310.373C508.977 310.125 508.533 310.001 507.949 310.001C507.501 310.001 507.097 310.077 506.737 310.229C506.377 310.373 506.065 310.601 505.801 310.913L504.985 310.205C505.305 309.797 505.733 309.485 506.269 309.269C506.813 309.045 507.409 308.933 508.057 308.933C508.641 308.933 509.149 309.029 509.581 309.221C510.013 309.405 510.345 309.673 510.577 310.025C510.817 310.377 510.937 310.793 510.937 311.273C510.937 311.545 510.901 311.813 510.829 312.077C510.757 312.341 510.621 312.621 510.421 312.917C510.221 313.213 509.933 313.545 509.557 313.913L506.509 316.853L506.221 316.385H511.297V317.429H505.261Z" fill="black"/>
<path d="M484.454 314.105H61.7925C61.4165 314.105 61.0556 314.253 60.7874 314.516C60.5193 314.78 60.3654 315.138 60.3589 315.514V315.514C60.3621 315.699 60.4017 315.882 60.4755 316.051C60.5493 316.221 60.6558 316.374 60.7889 316.503C60.9221 316.632 61.0792 316.733 61.2514 316.8C61.4236 316.868 61.6075 316.901 61.7925 316.898H484.454C484.828 316.898 485.186 316.75 485.451 316.485C485.715 316.221 485.863 315.863 485.863 315.489V315.489C485.851 315.122 485.697 314.773 485.435 314.516C485.173 314.258 484.822 314.111 484.454 314.105Z" fill="#3A3D4C"/>
<defs>
<linearGradient id="paint0_linear_339_45" x1="398.34" y1="392.483" x2="153.691" y2="-25.1618" gradientUnits="userSpaceOnUse">
<stop stop-color="#D9D9D9"/>
<stop offset="0.99" stop-color="white"/>
</linearGradient>
<linearGradient id="paint1_linear_339_45" x1="276.312" y1="251.447" x2="276.312" y2="79.7872" gradientUnits="userSpaceOnUse">
<stop stop-color="#C31FE6"/>
<stop offset="0.99" stop-color="#FBFEFE"/>
</linearGradient>
<linearGradient id="paint2_linear_339_45" x1="276.312" y1="251.447" x2="276.312" y2="101.365" gradientUnits="userSpaceOnUse">
<stop offset="0.01" stop-color="#5A6FF0"/>
<stop offset="0.13" stop-color="#5577EF"/>
<stop offset="0.33" stop-color="#488DEC"/>
<stop offset="0.57" stop-color="#31B0E7"/>
<stop offset="0.84" stop-color="#13E1E1"/>
<stop offset="0.99" stop-color="#00FFDD"/>
</linearGradient>
<linearGradient id="paint3_linear_339_45" x1="41.5986" y1="203.842" x2="511.001" y2="203.842" gradientUnits="userSpaceOnUse">
<stop offset="0.01" stop-color="#5A6FF0"/>
<stop offset="0.99" stop-color="#C31FE6"/>
</linearGradient>
</defs>
</svg>
